<svg width="289" height="457" viewBox="0 0 289 457" fill="none" xmlns="http://www.w3.org/2000/svg">
<g opacity="0.05">
<path fill-rule="evenodd" clip-rule="evenodd" d="M126.986 82.2259C-107.102 147.436 -33.1963 296.114 -21.4947 316.874L-35.1477 335.423L-30.7038 338.664L-16.4396 319.284C12.5705 319.594 36.276 315.078 55.5007 307.081C55.3736 307.051 55.2467 307.021 55.1199 306.991C57.3851 306.06 59.5923 305.08 61.7428 304.053C61.8499 304.07 61.9571 304.088 62.0643 304.105C63.333 303.541 64.5832 302.857 65.8334 302.174C65.7763 302.148 65.719 302.123 65.6617 302.097C67.2071 301.292 68.7216 300.462 70.2057 299.607C70.3083 299.649 70.4106 299.692 70.5125 299.734C74.2446 297.563 77.7175 295.309 81.1533 292.816L81.1051 292.503C82.3425 291.595 83.5547 290.667 84.742 289.72L84.7553 289.806C90.9048 284.931 96.36 279.549 101.139 273.781C101.121 273.773 101.104 273.765 101.086 273.757C102.01 272.655 102.911 271.539 103.792 270.407C103.803 270.412 103.815 270.417 103.827 270.422C105.33 268.459 106.772 266.46 108.153 264.431C112.991 257.36 117.083 249.797 120.51 241.864C120.543 241.849 120.576 241.833 120.609 241.818C122.777 236.698 124.686 231.495 126.335 226.21C126.325 226.193 126.316 226.177 126.306 226.16C126.868 224.356 127.402 222.537 127.908 220.706C127.928 220.738 127.949 220.771 127.969 220.803C130.527 211.819 132.307 202.587 133.504 193.567C133.479 193.406 133.454 193.245 133.429 193.083C133.94 189.197 134.353 185.285 134.676 181.356C134.737 181.431 134.797 181.505 134.857 181.58C139.351 129.227 127.399 82.1111 127.399 82.1111C127.265 82.1482 127.131 82.1854 126.998 82.2226C126.994 82.2056 126.99 82.1885 126.986 82.1714L126.986 82.2259Z" fill="#A6CE39"/>
<path fill-rule="evenodd" clip-rule="evenodd" d="M128.184 83.2798C127.982 82.4189 127.868 81.9689 127.868 81.9689L127.47 82.0795L127.46 82.0302L127.459 82.0826C-106.633 147.292 -32.727 295.972 -21.0254 316.731L-34.6783 335.281L-30.2345 338.522L-15.9703 319.142C-10.9468 319.196 -6.0825 319.105 -1.37293 318.876L-1.4483 316.554C-20.8256 272.909 -54.651 151.163 128.184 83.2798Z" fill="#B2DA46"/>
</g>
<g opacity="0.05">
<path fill-rule="evenodd" clip-rule="evenodd" d="M257.256 243.645C45.619 124.229 -7.25321 281.62 -13.6581 304.574L-36.4284 308.036L-35.5779 313.47L-11.7881 309.853C8.50597 330.585 28.4617 344.154 47.7103 352.093C47.6414 351.982 47.5728 351.871 47.5045 351.76C49.7641 352.703 52.0173 353.571 54.2636 354.365C54.3274 354.454 54.3914 354.543 54.4557 354.631C55.7515 355.13 57.1189 355.53 58.4864 355.931C58.4637 355.872 58.441 355.813 58.4183 355.754C60.081 356.277 61.7397 356.761 63.3943 357.206C63.4366 357.309 63.4789 357.411 63.521 357.512C67.6951 358.616 71.7444 359.478 75.937 360.145L76.1234 359.891C77.6411 360.123 79.1548 360.324 80.6644 360.494L80.6121 360.565C88.4078 361.466 96.0706 361.518 103.529 360.819C103.522 360.801 103.515 360.782 103.507 360.764C104.94 360.638 106.368 360.486 107.791 360.308C107.795 360.32 107.8 360.332 107.805 360.343C110.233 360.021 112.644 359.632 115.034 359.179C123.477 357.601 131.74 355.142 139.793 351.947C139.828 351.96 139.864 351.973 139.899 351.986C145.053 349.899 150.081 347.57 154.985 344.999C154.99 344.979 154.995 344.96 155 344.94C156.671 344.063 158.332 343.155 159.983 342.22C159.974 342.256 159.966 342.292 159.958 342.328C168.12 337.784 175.906 332.515 183.13 326.983C183.225 326.854 183.319 326.726 183.413 326.597C186.525 324.208 189.587 321.732 192.597 319.18C192.587 319.274 192.576 319.369 192.566 319.464C232.763 285.623 257.628 243.855 257.628 243.855C257.507 243.787 257.387 243.719 257.266 243.651C257.276 243.636 257.285 243.621 257.295 243.606L257.256 243.645Z" fill="#A6CE39"/>
<path fill-rule="evenodd" clip-rule="evenodd" d="M257.361 245.235C257.827 244.483 258.065 244.084 258.065 244.084L257.702 243.879L257.729 243.838L257.692 243.873C46.0563 124.459 -6.81569 281.85 -13.2206 304.803L-35.9908 308.265L-35.1403 313.699L-11.3505 310.082C-7.83682 313.672 -4.33324 317.046 -0.841708 320.215L0.748882 318.517C17.9105 273.952 80.0815 163.954 257.361 245.235Z" fill="#B2DA46"/>
</g>
</svg>
