<svg width="323" height="620" viewBox="0 0 323 620" fill="none" xmlns="http://www.w3.org/2000/svg">
<g opacity="0.05">
<path fill-rule="evenodd" clip-rule="evenodd" d="M50.4889 331.601C229.041 592.753 381.282 439.308 401.959 416.179L430.546 425.225L432.676 418.389L402.809 408.938C391.023 373.054 375.515 345.733 357.596 325.393C357.612 325.563 357.628 325.732 357.644 325.901C355.546 323.5 353.412 321.19 351.244 318.97C351.221 318.83 351.197 318.69 351.173 318.55C349.946 317.223 348.579 315.968 347.212 314.714C347.205 314.796 347.197 314.878 347.19 314.959C345.55 313.393 343.892 311.875 342.216 310.405C342.226 310.262 342.235 310.118 342.244 309.976C338.003 306.287 333.769 302.952 329.255 299.763L328.892 299.952C327.252 298.808 325.599 297.703 323.934 296.636L324.035 296.584C315.447 291.05 306.526 286.584 297.412 283.113C297.41 283.138 297.408 283.163 297.406 283.188C295.661 282.512 293.906 281.869 292.142 281.259C292.143 281.243 292.145 281.227 292.146 281.211C289.309 280.254 286.456 279.374 283.592 278.571C272.646 275.468 261.393 273.54 249.955 272.626C249.921 272.591 249.888 272.556 249.854 272.52C242.634 271.996 235.422 271.826 228.216 272.01C228.199 272.03 228.183 272.049 228.166 272.069C225.707 272.133 223.244 272.238 220.777 272.382C220.808 272.344 220.838 272.306 220.869 272.268C208.723 272.884 196.598 274.563 184.981 276.871C184.795 276.968 184.61 277.064 184.425 277.161C179.418 278.161 174.42 279.293 169.439 280.544C169.505 280.439 169.571 280.335 169.637 280.23C103.23 296.65 50.1752 331.142 50.1752 331.142C50.2768 331.291 50.3783 331.439 50.4799 331.588C50.4601 331.6 50.4404 331.612 50.4207 331.623L50.4889 331.601Z" fill="#A6CE39"/>
<path fill-rule="evenodd" clip-rule="evenodd" d="M51.2841 329.684C50.3082 330.294 49.8017 330.623 49.8017 330.623L50.1058 331.068L50.0472 331.104L50.1148 331.082C228.667 592.235 380.908 438.789 401.585 415.66L430.172 424.707L432.303 417.87L402.436 408.419C400.395 402.205 398.242 396.248 395.985 390.539L393.156 391.606C347.495 433.792 211.635 526.549 51.2841 329.684Z" fill="#B2DA46"/>
</g>
<g opacity="0.05">
<path fill-rule="evenodd" clip-rule="evenodd" d="M194.791 103.349C136.385 414.266 352.537 413.413 383.512 411.68L397.33 438.291L403.67 434.964L389.234 407.161C406.274 373.454 414.627 343.168 416.338 316.115C416.23 316.247 416.122 316.378 416.013 316.509C416.228 313.326 416.352 310.184 416.389 307.08C416.471 306.966 416.552 306.851 416.634 306.736C416.704 304.93 416.625 303.077 416.545 301.224L416.545 301.223C416.483 301.275 416.42 301.327 416.358 301.379C416.306 299.112 416.206 296.867 416.061 294.643C416.17 294.547 416.278 294.452 416.385 294.358C415.995 288.75 415.359 283.398 414.422 277.952L414.03 277.829C413.68 275.86 413.293 273.91 412.869 271.979L412.977 272.012C410.817 262.027 407.667 252.561 403.677 243.662C403.658 243.678 403.639 243.695 403.62 243.711C402.864 241.999 402.078 240.304 401.263 238.626C401.275 238.615 401.287 238.604 401.299 238.594C399.933 235.836 398.497 233.124 396.995 230.462C391.474 220.609 384.923 211.36 377.535 202.69C377.536 202.641 377.537 202.592 377.538 202.543C372.804 197.067 367.824 191.847 362.599 186.881C362.573 186.883 362.547 186.886 362.52 186.888C360.737 185.195 358.921 183.527 357.075 181.885C357.124 181.88 357.173 181.874 357.222 181.869C348.198 173.717 338.438 166.33 328.591 159.747C328.39 159.684 328.188 159.621 327.987 159.558C323.741 156.726 319.407 153.992 315.002 151.356C315.123 151.328 315.245 151.301 315.367 151.273C256.799 115.927 194.894 102.801 194.894 102.801C194.86 102.979 194.827 103.156 194.794 103.334C194.771 103.328 194.749 103.323 194.727 103.317L194.791 103.349Z" fill="#A6CE39"/>
<path fill-rule="evenodd" clip-rule="evenodd" d="M196.708 102.555C195.586 102.296 194.995 102.17 194.995 102.17L194.894 102.703L194.827 102.686L194.891 102.718C136.485 413.635 352.637 412.782 383.613 411.049L397.43 437.66L403.771 434.332L389.335 406.53C392.285 400.693 394.975 394.96 397.415 389.327L394.66 388.081C332.542 385.624 170.888 355.143 196.708 102.555Z" fill="#B2DA46"/>
</g>
</svg>
