<svg width="466" height="683" viewBox="0 0 466 683" fill="none" xmlns="http://www.w3.org/2000/svg">
<g opacity="0.2">
<mask id="mask0_2304_9745" style="mask-type:alpha" maskUnits="userSpaceOnUse" x="-180" y="0" width="620" height="620">
<circle cx="129.698" cy="309.795" r="309.698" fill="#D9D9D9"/>
</mask>
<g mask="url(#mask0_2304_9745)">
<rect x="7.24219" y="3.17773" width="229.504" height="6.16315" fill="#A6CE39"/>
<rect x="236.746" y="613.331" width="229.504" height="6.16315" transform="rotate(-180 236.746 613.331)" fill="#A6CE39"/>
<rect x="-37.7578" y="15.5039" width="319.506" height="6.16315" fill="#A6CE39"/>
<rect x="281.75" y="601.005" width="319.506" height="6.16315" transform="rotate(-180 281.75 601.005)" fill="#A6CE39"/>
<rect x="-82.7578" y="27.8301" width="409.507" height="6.16315" fill="#A6CE39"/>
<rect x="326.75" y="588.679" width="409.507" height="6.16315" transform="rotate(-180 326.75 588.679)" fill="#A6CE39"/>
<rect x="-123.26" y="40.1572" width="490.509" height="6.16315" fill="#A6CE39"/>
<rect x="367.25" y="576.353" width="490.509" height="6.16315" transform="rotate(-180 367.25 576.353)" fill="#A6CE39"/>
<rect x="-154.762" y="52.4834" width="553.51" height="6.16315" fill="#A6CE39"/>
<rect x="398.75" y="564.025" width="553.51" height="6.16315" transform="rotate(-180 398.75 564.025)" fill="#A6CE39"/>
<rect x="-186.26" y="64.8096" width="616.511" height="6.16315" fill="#A6CE39"/>
<rect x="430.25" y="551.699" width="616.511" height="6.16315" transform="rotate(-180 430.25 551.699)" fill="#A6CE39"/>
<rect x="-222.262" y="77.1357" width="688.512" height="6.16315" fill="#A6CE39"/>
<rect x="466.25" y="539.373" width="688.512" height="6.16315" transform="rotate(-180 466.25 539.373)" fill="#A6CE39"/>
<rect x="-258.26" y="89.4629" width="760.514" height="6.16315" fill="#A6CE39"/>
<rect x="502.25" y="527.047" width="760.514" height="6.16315" transform="rotate(-180 502.25 527.047)" fill="#A6CE39"/>
<rect x="-280.762" y="101.789" width="805.514" height="6.16315" fill="#A6CE39"/>
<rect x="524.754" y="514.721" width="805.514" height="6.16315" transform="rotate(-180 524.754 514.721)" fill="#A6CE39"/>
<rect x="-303.264" y="114.115" width="850.515" height="6.16315" fill="#A6CE39"/>
<rect x="547.25" y="502.395" width="850.515" height="6.16315" transform="rotate(-180 547.25 502.395)" fill="#A6CE39"/>
<rect x="-303.264" y="138.768" width="850.515" height="6.16315" fill="#A6CE39"/>
<rect x="547.25" y="329.825" width="850.515" height="6.16315" transform="rotate(-180 547.25 329.825)" fill="#A6CE39"/>
<rect x="547.25" y="477.742" width="850.515" height="6.16315" transform="rotate(-180 547.25 477.742)" fill="#A6CE39"/>
<rect x="-303.264" y="163.42" width="850.515" height="6.16315" fill="#A6CE39"/>
<rect x="547.25" y="305.173" width="850.515" height="6.16315" transform="rotate(-180 547.25 305.173)" fill="#A6CE39"/>
<rect x="547.25" y="453.089" width="850.515" height="6.16315" transform="rotate(-180 547.25 453.089)" fill="#A6CE39"/>
<rect x="-303.264" y="188.073" width="850.515" height="6.16315" fill="#A6CE39"/>
<rect x="547.25" y="280.521" width="850.515" height="6.16315" transform="rotate(-180 547.25 280.521)" fill="#A6CE39"/>
<rect x="547.25" y="428.437" width="850.515" height="6.16315" transform="rotate(-180 547.25 428.437)" fill="#A6CE39"/>
<rect x="-303.264" y="212.726" width="850.515" height="6.16315" fill="#A6CE39"/>
<rect x="-303.264" y="360.641" width="850.515" height="6.16315" fill="#A6CE39"/>
<rect x="547.25" y="255.868" width="850.515" height="6.16315" transform="rotate(-180 547.25 255.868)" fill="#A6CE39"/>
<rect x="547.25" y="403.783" width="850.515" height="6.16315" transform="rotate(-180 547.25 403.783)" fill="#A6CE39"/>
<rect x="-303.264" y="126.441" width="850.515" height="6.16315" fill="#A6CE39"/>
<rect x="547.25" y="342.152" width="850.515" height="6.16315" transform="rotate(-180 547.25 342.152)" fill="#A6CE39"/>
<rect x="547.25" y="490.068" width="850.515" height="6.16315" transform="rotate(-180 547.25 490.068)" fill="#A6CE39"/>
<rect x="-303.264" y="151.094" width="850.515" height="6.16315" fill="#A6CE39"/>
<rect x="547.25" y="317.5" width="850.515" height="6.16315" transform="rotate(-180 547.25 317.5)" fill="#A6CE39"/>
<rect x="547.25" y="465.415" width="850.515" height="6.16315" transform="rotate(-180 547.25 465.415)" fill="#A6CE39"/>
<rect x="-303.264" y="175.747" width="850.515" height="6.16315" fill="#A6CE39"/>
<rect x="547.25" y="292.847" width="850.515" height="6.16315" transform="rotate(-180 547.25 292.847)" fill="#A6CE39"/>
<rect x="547.25" y="440.763" width="850.515" height="6.16315" transform="rotate(-180 547.25 440.763)" fill="#A6CE39"/>
<rect x="-303.264" y="200.399" width="850.515" height="6.16315" fill="#A6CE39"/>
<rect x="-303.264" y="348.315" width="850.515" height="6.16315" fill="#A6CE39"/>
<rect x="547.25" y="268.194" width="850.515" height="6.16315" transform="rotate(-180 547.25 268.194)" fill="#A6CE39"/>
<rect x="547.25" y="416.109" width="850.515" height="6.16315" transform="rotate(-180 547.25 416.109)" fill="#A6CE39"/>
<rect x="-303.264" y="225.052" width="850.515" height="6.16315" fill="#A6CE39"/>
<rect x="-303.264" y="372.968" width="850.515" height="6.16315" fill="#A6CE39"/>
<rect x="547.25" y="243.541" width="850.515" height="6.16315" transform="rotate(-180 547.25 243.541)" fill="#A6CE39"/>
<rect x="547.25" y="391.457" width="850.515" height="6.16315" transform="rotate(-180 547.25 391.457)" fill="#A6CE39"/>
</g>
</g>
<path fill-rule="evenodd" clip-rule="evenodd" d="M399.924 408.017C145.447 48.6506 -62.9189 265.692 -91.1664 298.355L-131.16 286.419L-133.968 295.982L-92.1843 308.452C-74.9601 358.123 -52.7504 395.792 -27.3458 423.689C-27.3727 423.455 -27.3991 423.22 -27.4248 422.985C-24.4496 426.28 -21.4267 429.446 -18.3584 432.486C-18.3229 432.68 -18.287 432.873 -18.2507 433.066C-16.5126 434.884 -14.5814 436.598 -12.6502 438.312C-12.642 438.2 -12.6336 438.087 -12.6252 437.974C-10.3064 440.117 -7.96335 442.191 -5.5971 444.199C-5.60703 444.399 -5.61668 444.597 -5.62606 444.795C0.36073 449.832 6.32997 454.377 12.6854 458.711L13.1848 458.44C15.4926 459.995 17.8183 461.495 20.1612 462.941L20.0244 463.016C32.1032 470.521 44.6209 476.532 57.3843 481.154C57.3866 481.12 57.389 481.085 57.3914 481.051C59.8354 481.952 62.292 482.806 64.7606 483.616C64.7594 483.637 64.7582 483.659 64.7571 483.681C68.6329 484.918 72.5289 486.052 76.4378 487.084C91.8344 491.198 107.637 493.648 123.677 494.663C123.724 494.711 123.771 494.759 123.819 494.807C133.878 495.371 143.92 495.443 153.945 495.022C153.967 494.994 153.99 494.967 154.013 494.939C157.432 494.794 160.858 494.591 164.287 494.334C164.246 494.388 164.204 494.441 164.162 494.495C181.051 493.359 197.887 490.746 214.004 487.267C214.26 487.128 214.517 486.988 214.773 486.849C221.717 485.342 228.646 483.653 235.547 481.799C235.457 481.946 235.367 482.094 235.277 482.241C327.322 457.869 400.371 408.65 400.371 408.65C400.227 408.445 400.082 408.24 399.937 408.035C399.963 408.019 399.99 408.002 400.017 407.985L399.924 408.017Z" fill="#A6CE39"/>
<path fill-rule="evenodd" clip-rule="evenodd" d="M398.859 410.703C400.204 409.832 400.902 409.362 400.902 409.362L400.466 408.746L400.544 408.697L400.454 408.728C145.977 49.363 -62.388 266.404 -90.6354 299.067L-130.629 287.131L-133.437 296.694L-91.6533 309.164C-88.6707 317.766 -85.5385 326.007 -82.2661 333.9L-78.3569 332.353C-15.7762 272.595 171.183 140.387 398.859 410.703Z" fill="#B2DA46"/>
<g opacity="0.2">
<path fill-rule="evenodd" clip-rule="evenodd" d="M202.122 128.496C-20.7922 78.1691 -25.8533 234.231 -25.4153 256.637L-44.9886 265.913L-42.7531 270.578L-22.3033 260.886C1.58244 274.073 23.2263 280.898 42.7108 282.844C42.6194 282.763 42.5282 282.682 42.4373 282.601C44.7282 282.839 46.9928 283.011 49.2313 283.119C49.3118 283.181 49.3925 283.243 49.4732 283.305C50.7752 283.403 52.1152 283.394 53.4552 283.385C53.4194 283.339 53.3835 283.293 53.3476 283.246C54.9865 283.268 56.6111 283.255 58.2215 283.209C58.2868 283.289 58.3521 283.369 58.4171 283.449C62.4754 283.314 66.3558 282.996 70.3123 282.462L70.411 282.184C71.8413 281.983 73.2593 281.754 74.6653 281.499L74.6378 281.577C81.9032 280.28 88.8193 278.254 95.348 275.608C95.3366 275.593 95.3252 275.578 95.3137 275.564C96.5699 275.063 97.8149 274.54 99.0486 273.995C99.0562 274.004 99.0639 274.014 99.0715 274.023C101.309 273.014 103.51 271.942 105.668 270.811C112.697 267.148 119.34 262.772 125.609 257.811C125.645 257.813 125.681 257.815 125.717 257.818C129.794 254.544 133.694 251.086 137.415 247.444C137.414 247.425 137.413 247.405 137.413 247.386C138.682 246.142 139.934 244.875 141.168 243.585C141.171 243.621 141.173 243.658 141.176 243.694C147.298 237.394 152.887 230.542 157.898 223.606C157.95 223.46 158.002 223.313 158.054 223.167C160.208 220.177 162.294 217.122 164.311 214.013C164.328 214.103 164.345 214.192 164.362 214.281C191.416 172.93 202.517 128.585 202.517 128.585C202.389 128.556 202.261 128.527 202.133 128.498C202.138 128.483 202.142 128.468 202.147 128.452L202.122 128.496Z" fill="#A6CE39"/>
<path fill-rule="evenodd" clip-rule="evenodd" d="M202.647 129.906C202.864 129.102 202.97 128.678 202.97 128.678L202.586 128.591L202.599 128.545L202.575 128.588C-20.3395 78.2615 -25.4005 234.323 -24.9625 256.73L-44.5358 266.006L-42.3003 270.67L-21.8505 260.979C-17.7154 263.262 -13.6475 265.354 -9.6463 267.263L-8.68093 265.321C-5.27963 220.55 20.9587 104.627 202.647 129.906Z" fill="#B2DA46"/>
</g>
</svg>
