<svg width="303" height="546" viewBox="0 0 303 546" fill="none" xmlns="http://www.w3.org/2000/svg">
<g opacity="0.2">
<mask id="mask0_2312_9747" style="mask-type:alpha" maskUnits="userSpaceOnUse" x="22" y="17" width="529" height="529">
<circle cx="286.255" cy="281.975" r="264.024" fill="#D9D9D9"/>
</mask>
<g mask="url(#mask0_2312_9747)">
<rect x="181.859" y="20.5781" width="195.657" height="5.25422" fill="#A6CE39"/>
<rect x="377.516" y="540.746" width="195.657" height="5.25422" transform="rotate(-180 377.516 540.746)" fill="#A6CE39"/>
<rect x="143.492" y="31.0869" width="272.385" height="5.25422" fill="#A6CE39"/>
<rect x="415.879" y="530.237" width="272.385" height="5.25422" transform="rotate(-180 415.879 530.237)" fill="#A6CE39"/>
<rect x="105.129" y="41.5957" width="349.113" height="5.25422" fill="#A6CE39"/>
<rect x="454.246" y="519.729" width="349.113" height="5.25422" transform="rotate(-180 454.246 519.729)" fill="#A6CE39"/>
<rect x="70.6016" y="52.1035" width="418.169" height="5.25422" fill="#A6CE39"/>
<rect x="488.773" y="509.221" width="418.169" height="5.25422" transform="rotate(-180 488.773 509.221)" fill="#A6CE39"/>
<rect x="43.75" y="62.6123" width="471.879" height="5.25422" fill="#A6CE39"/>
<rect x="515.625" y="498.712" width="471.879" height="5.25422" transform="rotate(-180 515.625 498.712)" fill="#A6CE39"/>
<rect x="16.8945" y="73.1211" width="525.588" height="5.25422" fill="#A6CE39"/>
<rect x="542.48" y="488.203" width="525.588" height="5.25422" transform="rotate(-180 542.48 488.203)" fill="#A6CE39"/>
<rect x="-13.7969" y="83.6289" width="586.971" height="5.25422" fill="#A6CE39"/>
<rect x="573.172" y="477.695" width="586.971" height="5.25422" transform="rotate(-180 573.172 477.695)" fill="#A6CE39"/>
<rect x="-44.4922" y="94.1367" width="648.353" height="5.25422" fill="#A6CE39"/>
<rect x="603.863" y="467.187" width="648.353" height="5.25422" transform="rotate(-180 603.863 467.187)" fill="#A6CE39"/>
<rect x="-63.6719" y="104.646" width="686.718" height="5.25422" fill="#A6CE39"/>
<rect x="623.047" y="456.678" width="686.718" height="5.25422" transform="rotate(-180 623.047 456.678)" fill="#A6CE39"/>
<rect x="-82.8516" y="115.154" width="725.082" height="5.25422" fill="#A6CE39"/>
<rect x="642.227" y="446.17" width="725.082" height="5.25422" transform="rotate(-180 642.227 446.17)" fill="#A6CE39"/>
<rect x="-82.8516" y="136.171" width="725.082" height="5.25422" fill="#A6CE39"/>
<rect x="642.227" y="299.053" width="725.082" height="5.25422" transform="rotate(-180 642.227 299.053)" fill="#A6CE39"/>
<rect x="642.227" y="425.153" width="725.082" height="5.25422" transform="rotate(-180 642.227 425.153)" fill="#A6CE39"/>
<rect x="-82.8516" y="157.188" width="725.082" height="5.25422" fill="#A6CE39"/>
<rect x="642.227" y="278.035" width="725.082" height="5.25422" transform="rotate(-180 642.227 278.035)" fill="#A6CE39"/>
<rect x="642.227" y="404.136" width="725.082" height="5.25422" transform="rotate(-180 642.227 404.136)" fill="#A6CE39"/>
<rect x="-82.8516" y="178.205" width="725.082" height="5.25422" fill="#A6CE39"/>
<rect x="642.227" y="257.019" width="725.082" height="5.25422" transform="rotate(-180 642.227 257.019)" fill="#A6CE39"/>
<rect x="642.227" y="383.119" width="725.082" height="5.25422" transform="rotate(-180 642.227 383.119)" fill="#A6CE39"/>
<rect x="-82.8516" y="199.222" width="725.082" height="5.25422" fill="#A6CE39"/>
<rect x="-82.8516" y="325.322" width="725.082" height="5.25422" fill="#A6CE39"/>
<rect x="642.227" y="236.001" width="725.082" height="5.25422" transform="rotate(-180 642.227 236.001)" fill="#A6CE39"/>
<rect x="642.227" y="362.103" width="725.082" height="5.25422" transform="rotate(-180 642.227 362.103)" fill="#A6CE39"/>
<rect x="-82.8516" y="125.662" width="725.082" height="5.25422" fill="#A6CE39"/>
<rect x="642.227" y="309.561" width="725.082" height="5.25422" transform="rotate(-180 642.227 309.561)" fill="#A6CE39"/>
<rect x="642.227" y="435.662" width="725.082" height="5.25422" transform="rotate(-180 642.227 435.662)" fill="#A6CE39"/>
<rect x="-82.8516" y="146.68" width="725.082" height="5.25422" fill="#A6CE39"/>
<rect x="642.227" y="288.543" width="725.082" height="5.25422" transform="rotate(-180 642.227 288.543)" fill="#A6CE39"/>
<rect x="642.227" y="414.645" width="725.082" height="5.25422" transform="rotate(-180 642.227 414.645)" fill="#A6CE39"/>
<rect x="-82.8516" y="167.696" width="725.082" height="5.25422" fill="#A6CE39"/>
<rect x="642.227" y="267.526" width="725.082" height="5.25422" transform="rotate(-180 642.227 267.526)" fill="#A6CE39"/>
<rect x="642.227" y="393.628" width="725.082" height="5.25422" transform="rotate(-180 642.227 393.628)" fill="#A6CE39"/>
<rect x="-82.8516" y="188.713" width="725.082" height="5.25422" fill="#A6CE39"/>
<rect x="-82.8516" y="314.814" width="725.082" height="5.25422" fill="#A6CE39"/>
<rect x="642.227" y="246.51" width="725.082" height="5.25422" transform="rotate(-180 642.227 246.51)" fill="#A6CE39"/>
<rect x="642.227" y="372.611" width="725.082" height="5.25422" transform="rotate(-180 642.227 372.611)" fill="#A6CE39"/>
<rect x="-82.8516" y="209.73" width="725.082" height="5.25422" fill="#A6CE39"/>
<rect x="-82.8516" y="335.831" width="725.082" height="5.25422" fill="#A6CE39"/>
<rect x="642.227" y="225.492" width="725.082" height="5.25422" transform="rotate(-180 642.227 225.492)" fill="#A6CE39"/>
<rect x="642.227" y="351.594" width="725.082" height="5.25422" transform="rotate(-180 642.227 351.594)" fill="#A6CE39"/>
</g>
</g>
<path fill-rule="evenodd" clip-rule="evenodd" d="M466.447 238.916C342.04 132.139 286.413 229.37 279.165 243.721L263.641 243.027L263.492 246.735L279.71 247.46C290.423 263.842 301.851 275.438 313.549 283.216C313.519 283.135 313.488 283.054 313.458 282.972C314.83 283.892 316.207 284.762 317.59 285.582C317.62 285.648 317.65 285.714 317.68 285.78C318.473 286.28 319.325 286.724 320.178 287.169C320.171 287.128 320.163 287.086 320.156 287.045C321.188 287.61 322.223 288.148 323.26 288.659C323.275 288.731 323.289 288.803 323.303 288.875C325.921 290.153 328.488 291.254 331.175 292.245L331.33 292.103C332.304 292.456 333.279 292.787 334.256 293.097L334.214 293.136C339.255 294.754 344.32 295.793 349.348 296.308C349.346 296.296 349.343 296.283 349.341 296.271C350.305 296.375 351.27 296.462 352.235 296.531C352.236 296.538 352.238 296.546 352.239 296.554C353.663 296.644 355.084 296.701 356.502 296.723C362.523 296.836 368.541 296.292 374.513 295.192C374.534 295.205 374.555 295.218 374.576 295.231C378.261 294.525 381.894 293.643 385.476 292.584C385.482 292.572 385.488 292.56 385.493 292.548C386.716 292.186 387.935 291.803 389.151 291.4C389.14 291.423 389.13 291.447 389.12 291.47C395.117 289.533 400.961 287.067 406.467 284.353C406.548 284.278 406.63 284.204 406.711 284.129C409.081 282.957 411.429 281.721 413.753 280.428C413.734 280.49 413.715 280.552 413.695 280.613C444.735 263.487 466.667 239.104 466.667 239.104C466.595 239.043 466.524 238.982 466.453 238.921C466.461 238.913 466.468 238.905 466.476 238.897L466.447 238.916Z" fill="#A6CE39"/>
<path fill-rule="evenodd" clip-rule="evenodd" d="M466.305 239.986C466.713 239.549 466.923 239.315 466.923 239.315L466.709 239.131L466.733 239.107L466.704 239.126C342.296 132.349 286.67 229.581 279.421 243.932L263.898 243.238L263.748 246.946L279.967 247.671C281.821 250.507 283.698 253.2 285.593 255.754L286.86 254.845C304.057 227.603 359.626 162.941 466.305 239.986Z" fill="#B2DA46"/>
<g opacity="0.8">
<path fill-rule="evenodd" clip-rule="evenodd" d="M404.991 400.402C392.525 236.929 284.438 266.348 269.165 271.371L258.679 259.903L255.951 262.419L266.907 274.4C262.898 293.559 262.779 309.84 265.551 323.612C265.587 323.532 265.623 323.452 265.66 323.373C265.979 324.994 266.338 326.583 266.736 328.141C266.71 328.209 266.685 328.278 266.659 328.347C266.866 329.26 267.155 330.177 267.443 331.094C267.468 331.06 267.492 331.025 267.516 330.991C267.846 332.118 268.197 333.229 268.568 334.322C268.526 334.385 268.485 334.447 268.444 334.509C269.391 337.264 270.427 339.858 271.627 342.458L271.84 342.468C272.28 343.406 272.735 344.33 273.206 345.24L273.146 345.237C275.567 349.947 278.413 354.262 281.604 358.182C281.612 358.171 281.619 358.16 281.627 358.149C282.235 358.904 282.855 359.647 283.488 360.377C283.482 360.385 283.477 360.393 283.472 360.4C284.822 361.934 286.219 363.414 287.658 364.839C291.492 368.65 295.692 372.088 300.183 375.182C300.189 375.208 300.195 375.233 300.202 375.259C303.306 377.365 306.499 379.31 309.781 381.095C309.794 381.09 309.807 381.085 309.821 381.08C310.941 381.689 312.074 382.281 313.22 382.855C313.196 382.864 313.173 382.874 313.149 382.883C318.76 385.753 324.636 388.142 330.449 390.116C330.557 390.121 330.666 390.126 330.774 390.13C333.28 390.978 335.817 391.766 338.377 392.495C338.32 392.525 338.262 392.555 338.205 392.585C372.264 402.423 405.013 400.69 405.013 400.69C405.006 400.597 404.999 400.503 404.992 400.41C405.003 400.41 405.015 400.41 405.026 400.409L404.991 400.402Z" fill="#A6CE39"/>
<path fill-rule="evenodd" clip-rule="evenodd" d="M404.133 401.056C404.734 401.035 405.05 401.018 405.05 401.018L405.029 400.738L405.059 400.738L405.028 400.731C392.562 237.257 284.475 266.677 269.202 271.699L258.716 260.231L255.988 262.748L266.944 274.729C266.249 278.046 265.672 281.277 265.206 284.424L266.742 284.676C298.166 277.574 383.178 271.147 404.133 401.056Z" fill="#B2DA46"/>
</g>
<g opacity="0.8">
<path fill-rule="evenodd" clip-rule="evenodd" d="M398.856 78.8935C235.384 91.3603 264.803 199.447 269.826 214.72L258.358 225.206L260.874 227.934L272.855 216.978C292.014 220.987 308.295 221.106 322.067 218.334C321.987 218.298 321.907 218.261 321.827 218.225C323.449 217.905 325.038 217.546 326.596 217.149C326.665 217.174 326.734 217.2 326.803 217.225C327.716 217.019 328.633 216.73 329.55 216.441C329.516 216.417 329.481 216.393 329.446 216.368C330.574 216.038 331.686 215.687 332.78 215.315C332.842 215.357 332.904 215.398 332.965 215.439C335.72 214.492 338.314 213.456 340.915 212.256L340.924 212.043C341.861 211.604 342.785 211.149 343.695 210.678L343.693 210.736C348.402 208.316 352.718 205.47 356.637 202.279C356.626 202.271 356.615 202.264 356.605 202.256C357.361 201.648 358.104 201.027 358.835 200.393C358.843 200.398 358.85 200.403 358.857 200.408C360.21 199.217 361.522 197.989 362.791 196.728C366.804 192.758 370.408 188.387 373.639 183.698C373.665 183.692 373.691 183.686 373.717 183.679C375.823 180.575 377.768 177.382 379.553 174.1C379.548 174.086 379.543 174.072 379.538 174.058C380.145 172.939 380.736 171.808 381.31 170.664C381.319 170.688 381.329 170.712 381.338 170.736C384.208 165.125 386.597 159.249 388.571 153.436C388.576 153.327 388.581 153.217 388.585 153.107C389.433 150.602 390.22 148.066 390.949 145.507C390.98 145.564 391.01 145.622 391.04 145.679C400.878 111.621 399.145 78.8716 399.145 78.8716C399.051 78.8787 398.958 78.8858 398.864 78.8929C398.864 78.8814 398.864 78.8699 398.863 78.8583L398.856 78.8935Z" fill="#A6CE39"/>
<path fill-rule="evenodd" clip-rule="evenodd" d="M399.511 79.7491C399.49 79.1522 399.473 78.839 399.473 78.839L399.192 78.8603L399.192 78.8257L399.184 78.8609C235.713 91.3277 265.132 199.414 270.154 214.688L258.686 225.174L261.203 227.901L273.184 216.946C276.501 217.64 279.731 218.217 282.878 218.683L283.13 217.151C276.027 185.734 269.584 100.705 399.511 79.7491Z" fill="#B2DA46"/>
</g>
<path d="M236.579 266.288C235.023 265.289 233.259 263.981 231.529 262.259C230.733 262.638 229.869 262.982 229.004 263.326C230.906 264.773 233.086 265.909 235.438 266.667C235.818 266.564 236.199 266.426 236.579 266.288Z" fill="#A6CE39"/>
<path d="M223.434 236.119C223.227 241.113 223.849 245.349 224.887 248.896C226.686 243.765 229.211 239.838 231.978 236.877C231.079 233.088 230.906 230.023 230.871 228.508C227.793 230.402 225.233 233.019 223.434 236.119Z" fill="#A6CE39"/>
<path d="M227.932 262.465C228.866 262.121 229.765 261.742 230.63 261.363C228.624 259.228 226.583 256.37 225.027 252.685C224.611 254.338 224.266 256.094 224.023 257.988C225.096 259.641 226.41 261.157 227.932 262.465Z" fill="#A6CE39"/>
<path d="M231.736 260.847C235.265 259.125 238.136 257.024 240.488 254.751C234.78 254.545 229.626 253.098 225.891 251.721C227.516 255.716 229.661 258.678 231.736 260.847Z" fill="#A6CE39"/>
<path d="M220.633 246.589C220.633 247.106 220.667 247.623 220.702 248.139C221.221 248.415 222.328 249 223.884 249.689C222.881 246.52 222.259 242.87 222.189 238.634C221.221 241.079 220.633 243.765 220.633 246.589Z" fill="#A6CE39"/>
<path d="M240.383 253.581C236.994 249.758 234.884 245.659 233.534 242.112C233.05 240.769 232.635 239.495 232.289 238.255C229.66 241.251 227.239 245.212 225.613 250.378C229.314 251.824 234.538 253.374 240.383 253.581Z" fill="#A6CE39"/>
<path d="M241.247 225.478C238.549 225.546 235.989 226.132 233.637 227.096C235.435 227.441 238.168 228.129 241.247 229.541V225.478Z" fill="#A6CE39"/>
<path d="M232.946 235.879C234.917 233.916 236.958 232.435 238.861 231.298C239.379 230.988 239.898 230.713 240.383 230.437C236.578 228.75 233.326 228.199 232.012 228.026C232.046 229.197 232.15 232.125 232.946 235.879Z" fill="#A6CE39"/>
<path d="M233.293 237.256C233.639 238.702 234.123 240.217 234.711 241.767C235.991 245.142 238.032 249.103 241.283 252.788V231.332C240.661 231.642 240.038 231.986 239.415 232.331C237.444 233.536 235.334 235.12 233.293 237.256Z" fill="#A6CE39"/>
<path d="M224.23 251.101C224.23 251.066 224.23 251.101 224.23 251.101C222.777 250.481 221.636 249.93 220.875 249.517C221.221 251.962 221.982 254.269 223.089 256.336C223.366 254.476 223.746 252.719 224.23 251.101Z" fill="#A6CE39"/>
<path d="M242.426 252.754C245.643 249.069 247.684 245.143 248.963 241.767C249.551 240.252 249.966 238.771 250.347 237.394C248.306 235.224 246.162 233.605 244.19 232.434C243.602 232.09 243.014 231.746 242.46 231.436V252.754H242.426Z" fill="#A6CE39"/>
<path d="M242.426 263.636C244.363 262.534 246.127 261.26 247.718 259.848C245.712 258.573 243.948 257.161 242.426 255.715V263.636Z" fill="#A6CE39"/>
<path d="M242.426 229.473C245.504 228.095 248.202 227.441 250.001 227.096C247.649 226.132 245.124 225.546 242.426 225.478V229.473Z" fill="#A6CE39"/>
<path d="M243.148 254.785C244.705 256.301 246.538 257.747 248.614 259.021C250.482 257.231 252.142 255.268 253.56 253.201C250.516 253.993 246.988 254.648 243.148 254.785Z" fill="#A6CE39"/>
<path d="M232.637 261.742C234.505 263.533 236.407 264.841 237.998 265.806C239.14 265.358 240.212 264.876 241.284 264.325V255.715C238.898 257.919 236.061 259.985 232.637 261.742Z" fill="#A6CE39"/>
<path d="M244.739 231.367C246.641 232.504 248.682 234.019 250.654 236.016C251.484 232.194 251.588 229.197 251.623 228.026C250.308 228.199 246.987 228.75 243.113 230.437C243.632 230.747 244.186 231.057 244.739 231.367Z" fill="#A6CE39"/>
<path d="M252.802 228.508C252.767 230.058 252.56 233.192 251.66 237.049C253.839 239.425 255.915 242.421 257.541 246.141C258.647 243.73 259.547 241.216 260.273 238.736C260.273 237.875 260.273 237.014 260.239 236.119C258.44 233.019 255.88 230.368 252.802 228.508Z" fill="#A6CE39"/>
<path d="M250.103 242.146C248.788 245.694 246.644 249.792 243.254 253.615C247.474 253.477 251.348 252.65 254.565 251.72C255.395 250.377 256.156 249 256.848 247.588C255.326 243.834 253.389 240.838 251.279 238.427C250.968 239.598 250.552 240.872 250.103 242.146Z" fill="#A6CE39"/>
<path fill-rule="evenodd" clip-rule="evenodd" d="M245.58 15.5638C352.356 139.971 255.125 195.598 240.774 202.846L241.468 218.37L237.76 218.519L237.035 202.3C220.653 191.588 209.057 180.16 201.279 168.462C201.361 168.492 201.443 168.523 201.525 168.554C200.604 167.181 199.734 165.802 198.913 164.419C198.847 164.389 198.782 164.359 198.716 164.328C198.216 163.536 197.772 162.684 197.327 161.831C197.368 161.838 197.409 161.845 197.45 161.852C196.886 160.821 196.349 159.787 195.837 158.751C195.765 158.736 195.693 158.722 195.62 158.708C194.343 156.09 193.241 153.523 192.25 150.836L192.393 150.68C192.04 149.706 191.709 148.731 191.399 147.754L191.36 147.797C189.741 142.755 188.702 137.691 188.187 132.663C188.2 132.665 188.213 132.668 188.225 132.67C188.121 131.706 188.034 130.741 187.965 129.776C187.958 129.775 187.95 129.773 187.942 129.772C187.852 128.346 187.795 126.923 187.773 125.503C187.66 119.486 188.204 113.471 189.303 107.502C189.29 107.48 189.276 107.458 189.262 107.435C189.968 103.751 190.851 100.118 191.909 96.5354C191.922 96.5293 191.935 96.5232 191.948 96.5171C192.309 95.2953 192.692 94.0766 193.095 92.8614C193.072 92.8717 193.049 92.8819 193.026 92.8922C194.963 86.8951 197.43 81.0508 200.143 75.5447C200.217 75.4642 200.291 75.3837 200.365 75.3033C201.537 72.932 202.774 70.5824 204.068 68.2577C204.006 68.2769 203.944 68.2962 203.882 68.3156C221.008 37.2759 245.391 15.344 245.391 15.344C245.452 15.4153 245.513 15.4865 245.574 15.5577C245.583 15.5497 245.591 15.5417 245.599 15.5336L245.58 15.5638Z" fill="#A6CE39"/>
<path fill-rule="evenodd" clip-rule="evenodd" d="M244.513 15.7101C244.95 15.3023 245.184 15.0923 245.184 15.0923L245.365 15.3034L245.388 15.2809L245.37 15.3091C352.151 139.719 254.918 195.346 240.567 202.594L241.261 218.118L237.553 218.267L236.828 202.049C233.991 200.194 231.298 198.317 228.743 196.422L229.657 195.149C256.9 177.949 321.55 122.382 244.513 15.7101Z" fill="#B2DA46"/>
<path fill-rule="evenodd" clip-rule="evenodd" d="M84.2809 79.6924C247.752 92.1592 218.333 200.246 213.311 215.519L224.779 226.005L222.262 228.733L210.281 217.777C191.123 221.786 174.842 221.905 161.07 219.133C161.15 219.096 161.231 219.06 161.311 219.023C159.689 218.704 158.099 218.344 156.541 217.946C156.472 217.972 156.403 217.998 156.334 218.023C155.42 217.816 154.503 217.528 153.586 217.239C153.621 217.215 153.656 217.19 153.691 217.166C152.562 216.836 151.451 216.485 150.357 216.113C150.295 216.155 150.233 216.196 150.172 216.237C147.417 215.29 144.823 214.253 142.222 213.054L142.213 212.841C141.275 212.402 140.352 211.947 139.442 211.476L139.444 211.534C134.735 209.114 130.419 206.267 126.5 203.076C126.511 203.069 126.521 203.061 126.532 203.054C125.776 202.446 125.033 201.825 124.301 201.191C124.294 201.196 124.287 201.201 124.279 201.206C122.926 200.015 121.614 198.786 120.345 197.525C116.332 193.555 112.728 189.184 109.498 184.496C109.472 184.49 109.446 184.483 109.42 184.477C107.314 181.373 105.369 178.18 103.584 174.898C103.589 174.884 103.594 174.87 103.599 174.856C102.991 173.737 102.401 172.605 101.827 171.462C101.817 171.486 101.808 171.51 101.799 171.534C98.9283 165.923 96.5399 160.046 94.5654 154.234C94.5607 154.124 94.5561 154.015 94.5514 153.905C93.7035 151.4 92.9166 148.864 92.1877 146.305C92.1573 146.363 92.127 146.421 92.0968 146.478C82.2588 112.42 83.9916 79.6704 83.9916 79.6704C84.0854 79.6775 84.1791 79.6846 84.2727 79.6917C84.2729 79.6799 84.2731 79.668 84.2733 79.6562L84.2809 79.6924Z" fill="#A6CE39"/>
<path fill-rule="evenodd" clip-rule="evenodd" d="M83.6258 80.5487C83.6465 79.9526 83.6631 79.6398 83.6631 79.6398L83.9442 79.6612L83.9448 79.6266L83.9522 79.6618C247.424 92.1285 218.005 200.215 212.982 215.488L224.45 225.974L221.934 228.702L209.953 217.746C206.636 218.44 203.405 219.018 200.259 219.484L200.005 217.94C207.107 186.516 213.534 101.503 83.6258 80.5487Z" fill="#B2DA46"/>
<path fill-rule="evenodd" clip-rule="evenodd" d="M15.5661 239.098C139.974 132.319 195.601 229.551 202.85 243.902L218.373 243.208L218.523 246.916L202.304 247.641C191.591 264.023 180.163 275.619 168.465 283.397C168.496 283.314 168.527 283.231 168.558 283.148C167.188 284.068 165.812 284.936 164.432 285.756C164.401 285.824 164.369 285.893 164.338 285.961C163.546 286.461 162.693 286.905 161.841 287.35C161.848 287.307 161.856 287.264 161.863 287.22C160.831 287.785 159.796 288.323 158.759 288.835C158.744 288.909 158.73 288.983 158.715 289.056C156.097 290.334 153.53 291.435 150.843 292.426L150.686 292.281C149.712 292.634 148.736 292.966 147.76 293.276L147.804 293.317C142.763 294.935 137.698 295.974 132.671 296.489C132.673 296.476 132.675 296.463 132.677 296.45C131.713 296.555 130.749 296.641 129.784 296.71C129.782 296.719 129.781 296.727 129.779 296.735C128.234 296.833 126.69 296.891 125.152 296.909C119.252 296.995 113.357 296.451 107.505 295.373C107.484 295.386 107.463 295.399 107.442 295.412C103.758 294.706 100.124 293.824 96.5418 292.765C96.5364 292.754 96.531 292.742 96.5256 292.731C95.3033 292.369 94.0841 291.986 92.8684 291.583C92.8785 291.606 92.8885 291.629 92.8986 291.652C86.9016 289.714 81.0573 287.248 75.5512 284.534C75.4722 284.461 75.3933 284.389 75.3143 284.316C72.9407 283.143 70.5888 281.905 68.2618 280.61C68.2808 280.672 68.2999 280.733 68.3191 280.794C37.2794 263.668 15.3476 239.285 15.3476 239.285C15.4183 239.225 15.489 239.164 15.5597 239.103C15.5512 239.094 15.5427 239.086 15.5342 239.077L15.5661 239.098Z" fill="#A6CE39"/>
<path fill-rule="evenodd" clip-rule="evenodd" d="M15.7089 240.163C15.3028 239.728 15.0937 239.496 15.0937 239.496L15.3058 239.314L15.2804 239.287L15.3123 239.308C139.72 132.53 195.347 229.761 202.596 244.113L218.119 243.419L218.269 247.126L202.05 247.852C200.195 250.689 198.318 253.383 196.422 255.938L195.149 255.025C177.952 227.784 122.385 163.124 15.7089 240.163Z" fill="#B2DA46"/>
<path fill-rule="evenodd" clip-rule="evenodd" d="M75.081 402.264C87.5474 238.791 195.635 268.211 210.908 273.233L221.394 261.765L224.121 264.282L213.166 276.263C217.174 295.421 217.293 311.702 214.521 325.474C214.485 325.394 214.449 325.314 214.412 325.235C214.093 326.858 213.733 328.45 213.335 330.009C213.36 330.076 213.384 330.142 213.409 330.209C213.202 331.123 212.914 332.04 212.625 332.957C212.602 332.923 212.578 332.89 212.555 332.857C212.225 333.985 211.874 335.095 211.503 336.189C211.544 336.25 211.584 336.311 211.625 336.371C210.677 339.126 209.641 341.72 208.441 344.321L208.232 344.33C207.793 345.268 207.337 346.192 206.866 347.102L206.922 347.1C204.502 351.809 201.655 356.125 198.464 360.044C198.457 360.034 198.45 360.024 198.443 360.014C197.835 360.77 197.214 361.513 196.58 362.244C196.584 362.25 196.588 362.257 196.593 362.263C195.73 363.243 194.847 364.202 193.947 365.138C189.707 369.58 184.983 373.535 179.885 377.048C179.879 377.072 179.873 377.097 179.867 377.121C176.762 379.227 173.569 381.172 170.288 382.957C170.275 382.953 170.263 382.948 170.25 382.944C169.129 383.552 167.996 384.144 166.851 384.718C166.874 384.727 166.896 384.736 166.919 384.745C161.309 387.616 155.432 390.004 149.62 391.979C149.513 391.983 149.406 391.988 149.299 391.992C146.792 392.841 144.255 393.628 141.696 394.357C141.753 394.387 141.81 394.417 141.867 394.447C107.808 404.285 75.0591 402.552 75.0591 402.552C75.0662 402.459 75.0733 402.366 75.0804 402.272C75.0689 402.272 75.0574 402.272 75.0459 402.272L75.081 402.264Z" fill="#A6CE39"/>
<path fill-rule="evenodd" clip-rule="evenodd" d="M75.9493 402.918C75.3449 402.897 75.0278 402.881 75.0278 402.881L75.049 402.601L75.0145 402.6L75.0496 402.593C87.516 239.12 195.603 268.539 210.876 273.561L221.362 262.094L224.09 264.61L213.134 276.591C213.828 279.908 214.406 283.139 214.872 286.286L213.339 286.538C181.913 279.436 96.9033 273.012 75.9493 402.918Z" fill="#B2DA46"/>
<path fill-rule="evenodd" clip-rule="evenodd" d="M239.332 474.574C129.411 352.93 225.193 294.84 239.354 287.228L238.264 271.727L241.967 271.483L243.106 287.678C259.756 297.969 271.64 309.097 279.714 320.593C279.633 320.565 279.552 320.537 279.471 320.509C280.427 321.859 281.333 323.216 282.189 324.578C282.252 324.605 282.315 324.632 282.377 324.659C282.897 325.438 283.363 326.279 283.829 327.12C283.791 327.114 283.753 327.109 283.715 327.103C284.305 328.12 284.869 329.139 285.406 330.162C285.477 330.174 285.548 330.187 285.618 330.199C286.962 332.783 288.129 335.321 289.188 337.982L289.053 338.137C289.431 339.101 289.787 340.068 290.122 341.036L290.155 340.998C291.901 345.997 293.069 351.033 293.712 356.046C293.702 356.044 293.692 356.043 293.681 356.041C293.81 357.002 293.921 357.964 294.015 358.926C294.022 358.927 294.029 358.929 294.036 358.93C294.149 360.187 294.234 361.443 294.293 362.697C294.604 368.878 294.218 375.075 293.244 381.238C293.256 381.256 293.267 381.274 293.279 381.293C292.667 384.994 291.878 388.648 290.911 392.257C290.902 392.261 290.893 392.266 290.884 392.27C290.553 393.502 290.201 394.731 289.829 395.957C289.851 395.947 289.872 395.937 289.893 395.927C288.109 401.972 285.793 407.877 283.22 413.451C283.152 413.529 283.083 413.608 283.014 413.687C281.902 416.09 280.724 418.474 279.489 420.834C279.548 420.813 279.608 420.793 279.667 420.773C263.338 452.239 239.523 474.786 239.523 474.786C239.461 474.717 239.399 474.649 239.337 474.58C239.329 474.587 239.322 474.595 239.315 474.602L239.332 474.574Z" fill="#A6CE39"/>
<path fill-rule="evenodd" clip-rule="evenodd" d="M240.394 474.398C239.967 474.818 239.738 475.034 239.738 475.034L239.55 474.825L239.526 474.85L239.545 474.819C129.627 353.177 225.408 295.087 239.569 287.475L238.479 271.974L242.182 271.73L243.321 287.925C246.205 289.707 248.945 291.515 251.548 293.345L250.67 294.637C223.876 312.525 160.658 369.724 240.394 474.398Z" fill="#B2DA46"/>
</svg>
