<svg width="714" height="858" viewBox="0 0 714 858" fill="none" xmlns="http://www.w3.org/2000/svg">
<g opacity="0.8">
<path fill-rule="evenodd" clip-rule="evenodd" d="M60.8268 590.682C485.514 805.362 574.869 492.743 585.346 447.268L629.58 438.459L627.431 427.905L581.216 437.108C539.663 398.366 499.412 373.607 461.047 359.797C461.19 360.006 461.333 360.215 461.475 360.425C456.968 358.781 452.48 357.284 448.012 355.931C447.881 355.765 447.75 355.599 447.618 355.433C445.039 354.574 442.328 353.913 439.617 353.252C439.666 353.363 439.715 353.475 439.764 353.587C436.467 352.712 433.182 351.914 429.909 351.192C429.818 350.997 429.726 350.803 429.636 350.61C421.371 348.823 413.373 347.499 405.112 346.57L404.773 347.081C401.783 346.761 398.805 346.504 395.837 346.306L395.928 346.169C380.597 345.104 365.602 345.688 351.075 347.723C351.089 347.755 351.104 347.788 351.119 347.821C348.328 348.195 345.549 348.62 342.782 349.095C342.773 349.075 342.763 349.054 342.754 349.033C338.754 349.752 334.783 350.562 330.844 351.462C313.718 355.317 297.06 361.042 280.921 368.315C280.854 368.294 280.786 368.272 280.719 368.251C270.825 372.795 261.196 377.801 251.833 383.269C251.826 383.305 251.819 383.341 251.811 383.377C248.616 385.245 245.443 387.171 242.295 389.151C242.308 389.079 242.32 389.007 242.333 388.935C226.774 398.554 212.013 409.558 198.376 421.025C198.201 421.288 198.026 421.551 197.851 421.814C191.981 426.762 186.217 431.876 180.562 437.135C180.573 436.95 180.584 436.765 180.596 436.58C104.988 506.376 60.0828 590.305 60.0828 590.305C60.3241 590.428 60.5652 590.55 60.8062 590.671C60.7896 590.7 60.773 590.728 60.7564 590.757L60.8268 590.682Z" fill="#A6CE39"/>
<path fill-rule="evenodd" clip-rule="evenodd" d="M60.4966 587.568C59.6496 589.084 59.2194 589.888 59.2194 589.888C59.4619 590.011 59.7044 590.134 59.9467 590.256L59.8969 590.342L59.9672 590.267C484.651 804.943 574.006 492.325 584.483 446.851L628.717 438.042L626.567 427.488L580.353 436.691C573.158 429.983 566.002 423.694 558.888 417.809L555.945 421.251C526.368 509.954 414.592 730.735 60.4966 587.568Z" fill="#B2DA46"/>
</g>
<path fill-rule="evenodd" clip-rule="evenodd" d="M190.26 146.909C736.789 30.7578 744.338 412.445 742.575 467.21L790.14 490.492L784.53 501.826L734.836 477.502C676.034 509 622.91 525.017 575.215 529.172C575.442 528.976 575.669 528.78 575.895 528.584C570.286 529.096 564.743 529.447 559.266 529.642C559.067 529.792 558.868 529.941 558.668 530.09C555.482 530.29 552.206 530.227 548.93 530.163C549.02 530.051 549.109 529.939 549.198 529.826C545.193 529.829 541.223 529.748 537.289 529.584C537.127 529.779 536.965 529.973 536.803 530.166C526.886 529.711 517.409 528.813 507.753 527.386L507.521 526.704C504.03 526.168 500.57 525.566 497.14 524.898L497.203 525.084C479.481 521.69 462.636 516.524 446.757 509.852C446.784 509.818 446.811 509.784 446.838 509.751C443.784 508.488 440.759 507.172 437.761 505.802C437.744 505.824 437.726 505.845 437.708 505.867C433.02 503.68 428.401 501.381 423.859 498.974C405.973 489.566 389.138 478.259 373.316 465.412C373.232 465.416 373.148 465.42 373.063 465.423C363.197 457.294 353.771 448.72 344.785 439.702C344.787 439.658 344.79 439.614 344.792 439.57C341.727 436.491 338.706 433.353 335.728 430.161C335.721 430.246 335.714 430.331 335.707 430.416C320.934 414.825 307.483 397.901 295.447 380.79C295.329 380.442 295.21 380.093 295.092 379.745C289.912 372.363 284.902 364.823 280.06 357.153C280.017 357.367 279.974 357.582 279.931 357.797C215.068 255.867 189.3 147.113 189.3 147.113C189.611 147.047 189.922 146.981 190.233 146.915C190.222 146.876 190.211 146.837 190.201 146.799L190.26 146.909Z" fill="#A6CE39"/>
<path fill-rule="evenodd" clip-rule="evenodd" d="M188.97 150.343C188.466 148.375 188.219 147.336 188.219 147.336C188.532 147.27 188.844 147.203 189.155 147.137L189.124 147.025L189.182 147.131C735.708 30.9819 743.258 412.669 741.495 467.433L789.06 490.715L783.45 502.05L733.756 477.725C723.573 483.179 713.562 488.169 703.719 492.714L701.397 487.89C694.453 378.306 633.854 94.1788 188.97 150.343Z" fill="#B2DA46"/>
<g opacity="0.2">
<mask id="mask0_76_4960" style="mask-type:alpha" maskUnits="userSpaceOnUse" x="110" y="278" width="243" height="243">
<circle cx="231.253" cy="399.253" r="121.253" fill="#D9D9D9"/>
</mask>
<g mask="url(#mask0_76_4960)">
<rect x="183.309" y="279.206" width="89.8555" height="2.413" fill="#A6CE39"/>
<rect x="273.164" y="518.094" width="89.8555" height="2.413" transform="rotate(-180 273.164 518.094)" fill="#A6CE39"/>
<rect x="165.691" y="284.032" width="125.093" height="2.413" fill="#A6CE39"/>
<rect x="290.781" y="513.268" width="125.093" height="2.413" transform="rotate(-180 290.781 513.268)" fill="#A6CE39"/>
<rect x="148.07" y="288.858" width="160.33" height="2.413" fill="#A6CE39"/>
<rect x="308.402" y="508.441" width="160.33" height="2.413" transform="rotate(-180 308.402 508.441)" fill="#A6CE39"/>
<rect x="132.215" y="293.685" width="192.044" height="2.413" fill="#A6CE39"/>
<rect x="324.258" y="503.615" width="192.044" height="2.413" transform="rotate(-180 324.258 503.615)" fill="#A6CE39"/>
<rect x="119.883" y="298.511" width="216.71" height="2.413" fill="#A6CE39"/>
<rect x="336.594" y="498.789" width="216.71" height="2.413" transform="rotate(-180 336.594 498.789)" fill="#A6CE39"/>
<rect x="107.547" y="303.336" width="241.376" height="2.413" fill="#A6CE39"/>
<rect x="348.922" y="493.963" width="241.376" height="2.413" transform="rotate(-180 348.922 493.963)" fill="#A6CE39"/>
<rect x="93.4531" y="308.162" width="269.566" height="2.413" fill="#A6CE39"/>
<rect x="363.02" y="489.138" width="269.566" height="2.413" transform="rotate(-180 363.02 489.138)" fill="#A6CE39"/>
<rect x="79.3594" y="312.988" width="297.756" height="2.413" fill="#A6CE39"/>
<rect x="377.117" y="484.312" width="297.756" height="2.413" transform="rotate(-180 377.117 484.312)" fill="#A6CE39"/>
<rect x="70.5469" y="317.814" width="315.375" height="2.413" fill="#A6CE39"/>
<rect x="385.926" y="479.485" width="315.375" height="2.413" transform="rotate(-180 385.926 479.485)" fill="#A6CE39"/>
<rect x="61.7383" y="322.641" width="332.994" height="2.413" fill="#A6CE39"/>
<rect x="394.734" y="474.659" width="332.994" height="2.413" transform="rotate(-180 394.734 474.659)" fill="#A6CE39"/>
<rect x="61.7422" y="332.292" width="332.994" height="2.413" fill="#A6CE39"/>
<rect x="394.734" y="407.096" width="332.994" height="2.413" transform="rotate(-180 394.734 407.096)" fill="#A6CE39"/>
<rect x="394.734" y="465.008" width="332.994" height="2.413" transform="rotate(-180 394.734 465.008)" fill="#A6CE39"/>
<rect x="61.7383" y="341.944" width="332.994" height="2.413" fill="#A6CE39"/>
<rect x="394.734" y="397.443" width="332.994" height="2.413" transform="rotate(-180 394.734 397.443)" fill="#A6CE39"/>
<rect x="394.734" y="455.355" width="332.994" height="2.413" transform="rotate(-180 394.734 455.355)" fill="#A6CE39"/>
<rect x="61.7383" y="351.597" width="332.994" height="2.413" fill="#A6CE39"/>
<rect x="394.734" y="387.792" width="332.994" height="2.413" transform="rotate(-180 394.734 387.792)" fill="#A6CE39"/>
<rect x="394.734" y="445.703" width="332.994" height="2.413" transform="rotate(-180 394.734 445.703)" fill="#A6CE39"/>
<rect x="61.7422" y="361.248" width="332.994" height="2.413" fill="#A6CE39"/>
<rect x="61.7383" y="419.16" width="332.994" height="2.413" fill="#A6CE39"/>
<rect x="394.734" y="378.14" width="332.994" height="2.413" transform="rotate(-180 394.734 378.14)" fill="#A6CE39"/>
<rect x="394.734" y="436.052" width="332.994" height="2.413" transform="rotate(-180 394.734 436.052)" fill="#A6CE39"/>
<rect x="61.7422" y="327.467" width="332.994" height="2.413" fill="#A6CE39"/>
<rect x="394.734" y="411.922" width="332.994" height="2.413" transform="rotate(-180 394.734 411.922)" fill="#A6CE39"/>
<rect x="394.734" y="469.834" width="332.994" height="2.413" transform="rotate(-180 394.734 469.834)" fill="#A6CE39"/>
<rect x="61.7422" y="337.118" width="332.994" height="2.413" fill="#A6CE39"/>
<rect x="394.734" y="402.27" width="332.994" height="2.413" transform="rotate(-180 394.734 402.27)" fill="#A6CE39"/>
<rect x="394.734" y="460.182" width="332.994" height="2.413" transform="rotate(-180 394.734 460.182)" fill="#A6CE39"/>
<rect x="62" y="278" width="333" height="71" fill="#A6CE39"/>
<rect x="394.734" y="392.617" width="332.994" height="2.413" transform="rotate(-180 394.734 392.617)" fill="#A6CE39"/>
<rect x="394.734" y="450.529" width="332.994" height="2.413" transform="rotate(-180 394.734 450.529)" fill="#A6CE39"/>
<rect x="61.7422" y="356.423" width="332.994" height="2.413" fill="#A6CE39"/>
<rect x="61.7422" y="414.335" width="332.994" height="2.413" fill="#A6CE39"/>
<rect x="394.734" y="382.966" width="332.994" height="2.413" transform="rotate(-180 394.734 382.966)" fill="#A6CE39"/>
<rect x="394.734" y="440.877" width="332.994" height="2.413" transform="rotate(-180 394.734 440.877)" fill="#A6CE39"/>
<rect x="61.7383" y="366.074" width="332.994" height="2.413" fill="#A6CE39"/>
<rect x="61.7383" y="423.986" width="332.994" height="2.413" fill="#A6CE39"/>
<rect x="394.734" y="373.313" width="332.994" height="2.413" transform="rotate(-180 394.734 373.313)" fill="#A6CE39"/>
<rect x="394.734" y="431.226" width="332.994" height="2.413" transform="rotate(-180 394.734 431.226)" fill="#A6CE39"/>
</g>
</g>
</svg>
