<svg width="666" height="885" viewBox="0 0 666 885" fill="none" xmlns="http://www.w3.org/2000/svg">
<path fill-rule="evenodd" clip-rule="evenodd" d="M577.776 520.501C240.753 44.5663 -35.2005 332.011 -72.6108 375.268L-125.577 359.461L-129.296 372.126L-73.9588 388.641C-51.1474 454.423 -21.7335 504.312 11.9117 541.258C11.8762 540.949 11.8415 540.639 11.8076 540.33C15.7481 544.694 19.7518 548.887 23.8155 552.913C23.8623 553.168 23.9095 553.422 23.9573 553.676C26.2593 556.085 28.8169 558.355 31.3746 560.625C31.3854 560.477 31.3964 560.328 31.4075 560.179C34.4785 563.017 37.5816 565.765 40.7154 568.424C40.7023 568.687 40.6896 568.949 40.6773 569.21C48.606 575.881 56.5115 581.899 64.9285 587.64L65.5874 587.282C68.6433 589.341 71.7229 591.328 74.8253 593.243L74.6456 593.34C90.6424 603.28 107.221 611.241 124.124 617.362C124.127 617.317 124.13 617.272 124.133 617.227C127.37 618.42 130.624 619.552 133.894 620.624C133.892 620.652 133.891 620.68 133.889 620.709C138.857 622.294 143.849 623.752 148.858 625.083C169.406 630.611 190.503 633.898 211.918 635.254C211.981 635.317 212.043 635.38 212.105 635.443C225.428 636.191 238.727 636.286 252.004 635.728C252.033 635.692 252.063 635.656 252.093 635.619C256.622 635.427 261.16 635.159 265.702 634.818C265.647 634.889 265.592 634.959 265.537 635.03C287.904 633.527 310.202 630.065 331.546 625.458C331.885 625.274 332.225 625.09 332.564 624.905C341.761 622.909 350.939 620.672 360.081 618.215C359.962 618.411 359.843 618.607 359.723 618.803C481.625 586.524 578.37 521.34 578.37 521.34C578.177 521.068 577.985 520.796 577.793 520.524C577.827 520.503 577.862 520.481 577.897 520.46L577.776 520.501Z" fill="#A6CE39"/>
<path fill-rule="evenodd" clip-rule="evenodd" d="M576.36 524.063C578.143 522.908 579.068 522.285 579.068 522.285C578.876 522.013 578.683 521.741 578.491 521.469L578.595 521.405L578.475 521.446C241.452 45.5114 -34.502 332.956 -71.9123 376.213L-124.878 360.406L-128.598 373.071L-73.2603 389.586C-69.3106 400.976 -65.163 411.889 -60.8297 422.342L-55.65 420.291C27.2347 341.147 274.836 166.067 576.36 524.063Z" fill="#B2DA46"/>
</svg>
