<svg width="219" height="310" viewBox="0 0 219 310" fill="none" xmlns="http://www.w3.org/2000/svg">
<g opacity="0.8">
<path fill-rule="evenodd" clip-rule="evenodd" d="M32.566 280.583C218.775 260.049 181.014 137.745 174.69 120.496L187.382 108.079L184.404 105.061L171.143 118.034C149.109 114.195 130.512 114.686 114.891 118.382C114.983 118.42 115.075 118.458 115.167 118.497C113.329 118.924 111.528 119.395 109.765 119.909C109.687 119.883 109.609 119.857 109.531 119.831C108.495 120.102 107.459 120.467 106.423 120.832C106.463 120.858 106.502 120.884 106.541 120.91C105.266 121.33 104.01 121.774 102.775 122.24C102.703 122.196 102.632 122.152 102.561 122.108C99.4521 123.296 96.5298 124.579 93.6058 126.05L93.6038 126.288C92.5488 126.826 91.5106 127.382 90.489 127.955L90.4895 127.892C85.205 130.837 80.3859 134.254 76.033 138.049C76.0444 138.057 76.0557 138.064 76.0671 138.071C75.2274 138.795 74.4024 139.533 73.5918 140.284C73.5847 140.28 73.5776 140.276 73.5705 140.271C72.5168 141.264 71.4868 142.276 70.4814 143.308C65.532 148.347 61.1652 153.928 57.3248 159.926C57.2982 159.934 57.2717 159.941 57.2452 159.949C54.9596 163.575 52.8611 167.296 50.9495 171.113C50.9547 171.126 50.9599 171.139 50.9651 171.152C50.3136 172.454 49.6821 173.77 49.0702 175.099C49.0594 175.074 49.0486 175.049 49.0377 175.023C45.9756 181.541 43.4743 188.344 41.4434 195.058C41.4423 195.179 41.4413 195.3 41.4402 195.42C40.5671 198.318 39.765 201.248 39.0301 204.202C38.9939 204.138 38.9578 204.075 38.9219 204.011C28.9988 243.286 32.2395 280.619 32.2395 280.619C32.3454 280.607 32.4512 280.596 32.5569 280.584C32.5576 280.597 32.5583 280.61 32.5589 280.623L32.566 280.583Z" fill="#A6CE39"/>
<path fill-rule="evenodd" clip-rule="evenodd" d="M31.7893 279.628C31.836 280.31 31.8671 280.668 31.8671 280.668L32.1865 280.632L32.1885 280.671L32.1955 280.631C218.403 260.097 180.642 137.794 174.317 120.545L187.01 108.128L184.031 105.11L170.771 118.083C166.954 117.418 163.241 116.883 159.629 116.472L159.397 118.254C168.717 153.874 179.317 250.693 31.7893 279.628Z" fill="#B2DA46"/>
</g>
<path fill-rule="evenodd" clip-rule="evenodd" d="M33.8327 73.4602C143.932 12.2298 170.839 93.9942 174.086 105.914L185.879 107.782L185.421 110.596L173.099 108.645C162.512 119.328 152.123 126.299 142.119 130.353C142.155 130.296 142.19 130.239 142.226 130.182C141.051 130.664 139.88 131.107 138.713 131.511C138.68 131.557 138.647 131.602 138.614 131.647C137.94 131.901 137.23 132.105 136.52 132.308C136.532 132.278 136.544 132.248 136.555 132.218C135.692 132.484 134.831 132.729 133.972 132.954C133.95 133.007 133.928 133.059 133.906 133.112C131.739 133.67 129.637 134.104 127.461 134.436L127.366 134.305C126.577 134.421 125.79 134.52 125.006 134.604L125.032 134.639C120.987 135.081 117.014 135.084 113.15 134.697C113.154 134.688 113.157 134.679 113.161 134.67C112.419 134.6 111.68 134.517 110.943 134.42C110.941 134.426 110.938 134.431 110.936 134.437C109.787 134.277 108.646 134.089 107.514 133.873C103.03 133.029 98.6464 131.706 94.3798 129.982C94.3615 129.989 94.3433 129.996 94.325 130.002C91.6601 128.903 89.0606 127.68 86.5267 126.331C86.5242 126.321 86.5217 126.311 86.5192 126.301C85.6557 125.841 84.7978 125.365 83.9455 124.875C83.9496 124.894 83.9536 124.913 83.9577 124.931C79.7412 122.549 75.7212 119.793 71.9939 116.902C71.9454 116.835 71.8969 116.768 71.8483 116.701C70.2427 115.452 68.6634 114.159 67.1117 112.826C67.1165 112.875 67.1214 112.924 67.1265 112.974C46.3958 95.3008 33.6392 73.5679 33.6392 73.5679C33.7019 73.5329 33.7646 73.498 33.8273 73.4631C33.8226 73.4557 33.8179 73.4483 33.8131 73.4408L33.8327 73.4602Z" fill="#A6CE39"/>
<path fill-rule="evenodd" clip-rule="evenodd" d="M33.7809 74.2857C33.5418 73.8947 33.4199 73.6872 33.4199 73.6872L33.6082 73.5824L33.5939 73.5599L33.6136 73.5794C143.713 12.3491 170.62 94.1135 173.867 106.034L185.66 107.901L185.202 110.716L172.88 108.764C171.047 110.614 169.22 112.353 167.4 113.984L166.578 113.096C157.822 89.9353 125.942 32.7181 33.7809 74.2857Z" fill="#B2DA46"/>
</svg>
