<svg width="371" height="484" viewBox="0 0 371 484" fill="none" xmlns="http://www.w3.org/2000/svg">
<g opacity="0.8">
<path fill-rule="evenodd" clip-rule="evenodd" d="M334.505 387.964C53.4188 424.205 65.3028 230.925 68.4471 203.31L45.3574 189.583L48.6596 184.083L72.7831 198.425C103.807 184.919 131.324 179.007 155.608 178.868C155.486 178.957 155.364 179.047 155.242 179.136C158.1 179.108 160.917 179.158 163.695 179.285C163.801 179.218 163.908 179.151 164.014 179.084C165.633 179.114 167.287 179.281 168.94 179.448C168.891 179.5 168.841 179.553 168.792 179.607C170.817 179.77 172.82 179.974 174.802 180.219C174.892 180.127 174.982 180.036 175.071 179.946C180.066 180.583 184.82 181.428 189.644 182.546L189.733 182.9C191.475 183.314 193.199 183.761 194.906 184.24L194.881 184.143C203.701 186.588 212.005 189.892 219.759 193.919C219.743 193.935 219.728 193.951 219.713 193.967C221.205 194.731 222.681 195.522 224.141 196.337C224.15 196.327 224.16 196.317 224.17 196.307C226.445 197.602 228.68 198.952 230.873 200.352C239.534 205.846 247.585 212.259 255.059 219.409C255.103 219.41 255.146 219.412 255.189 219.413C259.843 223.929 264.256 228.651 268.428 233.58C268.425 233.603 268.422 233.626 268.418 233.649C269.841 235.331 271.24 237.042 272.614 238.778C272.621 238.735 272.628 238.691 272.636 238.648C279.463 247.138 285.567 256.247 290.948 265.393C290.994 265.577 291.04 265.76 291.087 265.943C293.401 269.887 295.622 273.903 297.753 277.978C297.784 277.871 297.814 277.764 297.845 277.657C326.445 331.858 334.999 387.9 334.999 387.9C334.839 387.921 334.678 387.942 334.518 387.963C334.522 387.982 334.526 388.001 334.529 388.021L334.505 387.964Z" fill="#A6CE39"/>
<path fill-rule="evenodd" clip-rule="evenodd" d="M335.304 386.283C335.479 387.302 335.56 387.838 335.56 387.838L335.078 387.9L335.089 387.958L335.064 387.902C53.9804 424.141 65.8643 230.862 69.0086 203.247L45.9189 189.52L49.2211 184.021L73.3446 198.362C78.7166 196.024 83.9835 193.913 89.1466 192.02L90.1195 194.548C89.1212 250.234 108.067 396.379 335.304 386.283Z" fill="#B2DA46"/>
</g>
<path fill-rule="evenodd" clip-rule="evenodd" d="M259.026 83.0785C75.3153 32.337 64.9275 162.144 64.4063 180.828L47.7339 187.781L49.4117 191.755L66.8306 184.49C86.2071 196.42 103.968 202.961 120.122 205.353C120.049 205.282 119.977 205.211 119.904 205.14C121.803 205.429 123.683 205.662 125.544 205.841C125.608 205.895 125.673 205.95 125.738 206.005C126.818 206.138 127.935 206.184 129.052 206.229C129.024 206.189 128.996 206.149 128.968 206.109C130.332 206.192 131.686 206.246 133.029 206.271C133.081 206.34 133.132 206.409 133.183 206.478C136.569 206.526 139.814 206.415 143.131 206.127L143.224 205.899C144.422 205.789 145.612 205.654 146.793 205.498L146.767 205.559C152.871 204.766 158.713 203.353 164.256 201.406C164.248 201.394 164.239 201.382 164.231 201.37C165.296 201.003 166.354 200.616 167.403 200.211C167.408 200.219 167.413 200.226 167.419 200.234C168.989 199.613 170.539 198.957 172.068 198.265C178.427 195.411 184.46 191.873 190.173 187.778C190.202 187.781 190.231 187.784 190.259 187.787C193.785 185.221 197.17 182.495 200.415 179.608C200.415 179.593 200.415 179.578 200.415 179.563C201.521 178.578 202.614 177.572 203.692 176.546C203.693 176.575 203.694 176.604 203.695 176.633C209.044 171.627 213.97 166.14 218.419 160.56C218.466 160.444 218.514 160.329 218.561 160.213C220.477 157.805 222.337 155.339 224.144 152.826C224.154 152.9 224.164 152.974 224.175 153.048C248.348 119.67 259.349 83.168 259.349 83.168C259.244 83.1389 259.139 83.1099 259.035 83.081C259.039 83.0684 259.043 83.0557 259.047 83.0431L259.026 83.0785Z" fill="#A6CE39"/>
<path fill-rule="evenodd" clip-rule="evenodd" d="M259.401 84.2741C259.614 83.6133 259.719 83.2645 259.719 83.2645L259.403 83.1771L259.415 83.1399L259.394 83.1746C75.6849 32.434 65.2971 162.241 64.7759 180.924L48.1035 187.877L49.7813 191.851L67.2002 184.587C70.5551 186.652 73.8615 188.556 77.1196 190.305L78.0083 188.712C82.6169 151.541 109.07 56.0379 259.401 84.2741Z" fill="#B2DA46"/>
</svg>
