
<svg width="42" height="45" viewBox="0 0 42 45" fill="none" xmlns="http://www.w3.org/2000/svg">
<path fill-rule="evenodd" clip-rule="evenodd" d="M35.6063 5.34157C-0.182041 9.57643 7.26851 33.0463 8.51141 36.3548L6.08867 38.7628L6.66625 39.3389L9.19747 36.823C13.4421 37.5281 17.019 37.4052 20.0184 36.6704C20.0004 36.6631 19.9825 36.6558 19.9645 36.6484C20.3175 36.5635 20.663 36.4701 21.0014 36.3685C21.0167 36.3736 21.0321 36.3786 21.0475 36.3836C21.2463 36.3298 21.4451 36.258 21.6439 36.1862C21.636 36.1812 21.6281 36.1761 21.6202 36.171C21.8655 36.0879 22.1069 36.0005 22.3443 35.9087C22.3587 35.9175 22.373 35.9262 22.3873 35.9349C22.9837 35.7016 23.5439 35.4502 24.1042 35.1629L24.1042 35.1146C24.306 35.0096 24.5045 34.9013 24.6998 34.7895L24.6998 34.8038C25.7119 34.2291 26.6338 33.5644 27.4654 32.8277C27.4625 32.8258 27.4595 32.824 27.4566 32.8221C27.6168 32.6819 27.7741 32.539 27.9285 32.3934C27.9303 32.3944 27.932 32.3955 27.9337 32.3965C28.2465 32.0971 28.5483 31.7884 28.8383 31.4717C29.6531 30.5849 30.3801 29.6192 31.027 28.591C31.0326 28.5894 31.0382 28.5878 31.0439 28.5862C31.478 27.8851 31.876 27.166 32.238 26.4289C32.2368 26.4259 32.2355 26.4229 32.2343 26.4199C32.3574 26.1689 32.4766 25.9153 32.592 25.6593C32.5941 25.6641 32.5962 25.6688 32.5983 25.6736C33.1775 24.4151 33.6483 23.1025 34.0287 21.8079C34.0288 21.7848 34.0288 21.7618 34.0288 21.7388C34.1927 21.179 34.3428 20.613 34.4799 20.0425C34.4874 20.0555 34.495 20.0685 34.5025 20.0815C36.3515 12.511 35.6712 5.33392 35.6712 5.33392C35.6501 5.3364 35.6291 5.33888 35.6081 5.34137C35.6079 5.33882 35.6078 5.33628 35.6076 5.33373L35.6063 5.34157Z" fill="#A6CE39"/>
<path fill-rule="evenodd" clip-rule="evenodd" d="M35.7615 5.5233C35.7515 5.39212 35.745 5.32336 35.745 5.32336L35.6853 5.33038L35.6849 5.32304L35.6836 5.33059C-0.108788 9.5643 7.34222 33.0356 8.58516 36.3442L6.16242 38.7523L6.74 39.3283L9.27122 36.8124C10.0056 36.9344 10.7201 37.0316 11.415 37.1052L11.4576 36.7562C9.61052 29.9131 7.43344 11.3129 35.7615 5.5233Z" fill="#B2DA46"/>
</svg>
