<svg width="160" height="160" viewBox="0 0 160 160" fill="none" xmlns="http://www.w3.org/2000/svg">
<rect width="160" height="160" rx="80" fill="white" fill-opacity="0.1"/>
<g clip-path="url(#clip0_459_9921)">
<path d="M76.8906 101.938C73.1886 101.938 70.1875 98.9364 70.1875 95.2344C70.1875 91.5323 73.1886 88.5312 76.8906 88.5312C80.5927 88.5312 83.5938 91.5323 83.5938 95.2344C83.5938 98.9364 80.5927 101.938 76.8906 101.938Z" stroke="#A6CE39" stroke-width="6" stroke-linecap="round" stroke-linejoin="round"/>
<path d="M39.1094 101.938C35.4073 101.938 32.4062 98.9364 32.4062 95.2344C32.4062 91.5323 35.4073 88.5312 39.1094 88.5312C42.8114 88.5312 45.8125 91.5323 45.8125 95.2344C45.8125 98.9364 42.8114 101.938 39.1094 101.938Z" stroke="#A6CE39" stroke-width="6" stroke-linecap="round" stroke-linejoin="round"/>
<path d="M70.1875 94.625H45.8125" stroke="#A6CE39" stroke-width="6" stroke-linecap="round" stroke-linejoin="round"/>
<path d="M32.4062 94.625H25.0938C24.4473 94.625 23.8273 94.3682 23.3702 93.9111C22.9131 93.454 22.6562 92.834 22.6562 92.1875V80C22.6562 79.3535 22.9131 78.7335 23.3702 78.2764C23.8273 77.8193 24.4473 77.5625 25.0938 77.5625H33.625L47.537 63.6505C47.9938 63.1942 48.6129 62.9378 49.2585 62.9375H82.2897C82.6906 62.9377 83.0852 63.0369 83.4386 63.2261C83.7921 63.4153 84.0934 63.6887 84.3159 64.0222L93.3438 77.5625V92.1875C93.3438 92.834 93.0869 93.454 92.6298 93.9111C92.1727 94.3682 91.5527 94.625 90.9062 94.625H83.5938" stroke="#A6CE39" stroke-width="6" stroke-linecap="round" stroke-linejoin="round"/>
<path d="M33.625 77.5625H93.3438" stroke="#A6CE39" stroke-width="6" stroke-linecap="round" stroke-linejoin="round"/>
</g>
<path d="M116.848 89C115.618 90.4707 113.77 91.4062 111.703 91.4062C108.001 91.4062 105 88.4052 105 84.7031C105 81.0011 108.001 78 111.703 78C112.901 78 114.026 78.3145 115 78.8655" stroke="#A6CE39" stroke-width="6" stroke-linecap="round" stroke-linejoin="round"/>
<path d="M118.961 91.1953C124.04 94.5294 130.86 93.1153 134.194 88.0368C137.528 82.9583 136.114 76.1386 131.035 72.8045C125.957 69.4704 119.137 70.8845 115.803 75.963" stroke="#A6CE39" stroke-width="6" stroke-linecap="round" stroke-linejoin="round"/>
<defs>
<clipPath id="clip0_459_9921">
<rect width="78" height="78" fill="white" transform="matrix(-1 0 0 1 97 41)"/>
</clipPath>
</defs>
</svg>
