<svg width="51" height="50" viewBox="0 0 51 50" fill="none" xmlns="http://www.w3.org/2000/svg">
<g clip-path="url(#clip0_458_10944)">
<path d="M25.5 4.6875C21.4022 4.6875 17.3965 5.87881 13.9893 8.11077C10.5821 10.3427 7.92653 13.5151 6.35838 17.2267C4.79023 20.9384 4.37993 25.0225 5.17936 28.9628C5.9788 32.903 7.95207 36.5224 10.8496 39.3631C13.7472 42.2039 17.4389 44.1384 21.458 44.9222C25.477 45.706 29.6429 45.3037 33.4287 43.7663C37.2146 42.2289 40.4504 39.6254 42.727 36.285C45.0036 32.9446 46.2188 29.0174 46.2188 25C46.213 19.6145 44.0282 14.4513 40.144 10.6432C36.2597 6.83507 30.9932 4.69319 25.5 4.6875ZM34.5963 21.418L23.4401 32.3555C23.2921 32.5007 23.1163 32.616 22.9228 32.6946C22.7293 32.7733 22.522 32.8137 22.3125 32.8137C22.1031 32.8137 21.8957 32.7733 21.7022 32.6946C21.5087 32.616 21.3329 32.5007 21.1849 32.3555L16.4037 27.668C16.1046 27.3748 15.9366 26.9771 15.9366 26.5625C15.9366 26.1479 16.1046 25.7502 16.4037 25.457C16.7027 25.1638 17.1083 24.9991 17.5313 24.9991C17.9542 24.9991 18.3598 25.1638 18.6588 25.457L22.3125 29.041L32.3412 19.207C32.4893 19.0619 32.665 18.9467 32.8585 18.8681C33.052 18.7896 33.2593 18.7491 33.4688 18.7491C33.6782 18.7491 33.8855 18.7896 34.079 18.8681C34.2725 18.9467 34.4483 19.0619 34.5963 19.207C34.7444 19.3522 34.8619 19.5245 34.942 19.7142C35.0221 19.9039 35.0634 20.1072 35.0634 20.3125C35.0634 20.5178 35.0221 20.7211 34.942 20.9108C34.8619 21.1005 34.7444 21.2728 34.5963 21.418Z" fill="#A6CE39"/>
</g>
<defs>
<clipPath id="clip0_458_10944">
<rect width="51" height="50" fill="white"/>
</clipPath>
</defs>
</svg>
