<svg width="18" height="18" viewBox="0 0 18 18" fill="none" xmlns="http://www.w3.org/2000/svg">
<g clip-path="url(#clip0_458_10922)">
<path d="M18.1277 9.25328C18.1277 4.24751 14.0696 0.189453 9.06383 0.189453C4.05806 0.189453 0 4.24751 0 9.25328C0 13.5039 2.92653 17.0707 6.87437 18.0503V12.0232H5.00541V9.25328H6.87437V8.05976C6.87437 4.97479 8.27056 3.54488 11.2993 3.54488C11.8736 3.54488 12.8645 3.65764 13.2698 3.77003V6.28071C13.0559 6.25823 12.6843 6.24699 12.2228 6.24699C10.7367 6.24699 10.1624 6.81004 10.1624 8.27366V9.25328H13.123L12.6143 12.0232H10.1624V18.2508C14.6497 17.7087 18.1277 13.8874 18.1277 9.25328Z" fill="white"/>
</g>
<defs>
<clipPath id="clip0_458_10922">
<rect width="18" height="18" fill="white"/>
</clipPath>
</defs>
</svg>
