<svg width="19" height="19" viewBox="0 0 19 19" fill="none" xmlns="http://www.w3.org/2000/svg">
<path d="M17.661 0.189453C18.3488 0.189453 18.9558 0.796406 18.9558 1.52475V17.0223C18.9558 17.7506 18.3488 18.3171 17.661 18.3171H2.08249C1.39461 18.3171 0.828125 17.7506 0.828125 17.0223V1.52475C0.828125 0.796406 1.39461 0.189453 2.08249 0.189453H17.661ZM6.2907 15.7274V7.10872H3.62011V15.7274H6.2907ZM4.95541 5.89481C5.80514 5.89481 6.49302 5.20693 6.49302 4.3572C6.49302 3.50746 5.80514 2.77912 4.95541 2.77912C4.06521 2.77912 3.37733 3.50746 3.37733 4.3572C3.37733 5.20693 4.06521 5.89481 4.95541 5.89481ZM16.3661 15.7274V10.9932C16.3661 8.68679 15.8401 6.86594 13.129 6.86594C11.8342 6.86594 10.944 7.59428 10.5798 8.28216H10.5394V7.10872H7.99017V15.7274H10.6608V11.4788C10.6608 10.3458 10.8631 9.25328 12.2793 9.25328C13.6551 9.25328 13.6551 10.5481 13.6551 11.5192V15.7274H16.3661Z" fill="white"/>
</svg>
