<svg width="18" height="18" viewBox="0 0 18 18" fill="none" xmlns="http://www.w3.org/2000/svg">
<path d="M16.5 0H1.5C1.10218 0 0.720644 0.158035 0.43934 0.43934C0.158035 0.720644 0 1.10218 0 1.5V16.5C0 16.8978 0.158035 17.2794 0.43934 17.5607C0.720644 17.842 1.10218 18 1.5 18H16.5C16.8978 18 17.2794 17.842 17.5607 17.5607C17.842 17.2794 18 16.8978 18 16.5V1.5C18 1.10218 17.842 0.720644 17.5607 0.43934C17.2794 0.158035 16.8978 0 16.5 0ZM9.05344 14.7806L8.54156 15.2916C7.76459 16.0483 6.72084 16.4686 5.63625 16.4615C4.55167 16.4544 3.51353 16.0203 2.7466 15.2534C1.97967 14.4865 1.54565 13.4483 1.5385 12.3637C1.53136 11.2792 1.95167 10.2354 2.70844 9.45844L4.95844 7.20844C5.63392 6.53472 6.52169 6.11547 7.47111 6.02182C8.42053 5.92818 9.37311 6.16592 10.1672 6.69469C10.3325 6.80533 10.4472 6.97713 10.4858 7.17228C10.5245 7.36744 10.4841 7.56997 10.3734 7.73531C10.2628 7.90066 10.091 8.01528 9.89584 8.05396C9.70069 8.09264 9.49816 8.05221 9.33281 7.94156C8.82782 7.60437 8.22154 7.45269 7.61726 7.51235C7.01297 7.57201 6.44806 7.83932 6.01875 8.26875L3.76875 10.5187C3.27644 11.0111 2.99987 11.6788 2.99987 12.375C2.99987 13.0712 3.27644 13.7389 3.76875 14.2313C4.26106 14.7236 4.92877 15.0001 5.625 15.0001C6.32123 15.0001 6.98894 14.7236 7.48125 14.2313L7.99219 13.7194C8.13292 13.5786 8.32379 13.4996 8.52281 13.4996C8.72184 13.4996 8.91271 13.5786 9.05344 13.7194C9.19417 13.8601 9.27323 14.051 9.27323 14.25C9.27323 14.449 9.19417 14.6399 9.05344 14.7806ZM15.2916 8.54156L13.0416 10.7916C12.3661 11.4653 11.4783 11.8845 10.5289 11.9782C9.57947 12.0718 8.62689 11.8341 7.83281 11.3053C7.66747 11.1947 7.55285 11.0229 7.51417 10.8277C7.47549 10.6326 7.51592 10.43 7.62656 10.2647C7.73721 10.0993 7.909 9.98472 8.10416 9.94604C8.29931 9.90736 8.50184 9.94779 8.66719 10.0584C9.17254 10.3946 9.77858 10.5456 10.3826 10.486C10.9866 10.4264 11.5514 10.1597 11.9813 9.73125L14.2313 7.48125C14.7236 6.98894 15.0001 6.32123 15.0001 5.625C15.0001 4.92877 14.7236 4.26106 14.2313 3.76875C13.7389 3.27644 13.0712 2.99987 12.375 2.99987C11.6788 2.99987 11.0111 3.27644 10.5187 3.76875L10.0078 4.28063C9.86708 4.42136 9.67621 4.50042 9.47719 4.50042C9.27816 4.50042 9.08729 4.42136 8.94656 4.28063C8.80583 4.13989 8.72677 3.94902 8.72677 3.75C8.72677 3.55098 8.80583 3.36011 8.94656 3.21937L9.45844 2.70844C10.2354 1.95167 11.2792 1.53136 12.3637 1.5385C13.4483 1.54565 14.4865 1.97967 15.2534 2.7466C16.0203 3.51353 16.4544 4.55167 16.4615 5.63625C16.4686 6.72084 16.0483 7.76459 15.2916 8.54156Z" fill="white"/>
</svg>
