
<svg width="35" height="36" viewBox="0 0 35 36" fill="none" xmlns="http://www.w3.org/2000/svg">
<path d="M13.8396 35.5066C12.4888 34.6398 10.9578 33.5041 9.45694 32.0098C8.76652 32.3385 8.01607 32.6374 7.26562 32.9363C8.91661 34.1915 10.8077 35.1778 12.849 35.8353C13.1792 35.7457 13.5094 35.6261 13.8396 35.5066Z" fill="#A6CE39"/>
<path d="M2.43295 9.32577C2.25284 13.6594 2.79316 17.3355 3.6937 20.4139C5.25463 15.9607 7.44595 12.5536 9.84738 9.98328C9.06692 6.6957 8.91683 4.03574 8.88681 2.7207C6.21521 4.3645 3.99388 6.63592 2.43295 9.32577Z" fill="#A6CE39"/>
<path d="M6.33344 32.1891C7.14392 31.8903 7.92439 31.5615 8.67484 31.2327C6.9338 29.3797 5.16274 26.8991 3.81193 23.7012C3.45171 25.1358 3.15153 26.66 2.94141 28.3038C3.87196 29.7384 5.01265 31.0534 6.33344 32.1891Z" fill="#A6CE39"/>
<path d="M9.63553 30.7853C12.6974 29.291 15.1889 27.4679 17.2301 25.4953C12.2771 25.316 7.80444 24.0607 4.5625 22.8652C5.97334 26.3321 7.83446 28.9024 9.63553 30.7853Z" fill="#A6CE39"/>
<path d="M0 18.4117C0 18.8601 0.0300182 19.3084 0.0600361 19.7567C0.510306 19.9958 1.47088 20.5039 2.82169 21.1016C1.95117 18.352 1.41084 15.1839 1.35081 11.5078C0.510305 13.6298 0 15.961 0 18.4117Z" fill="#A6CE39"/>
<path d="M17.138 24.4785C14.1962 21.161 12.3651 17.6045 11.1944 14.5261C10.7742 13.3605 10.414 12.2546 10.1138 11.1787C7.83241 13.7789 5.73116 17.2159 4.32031 21.699C7.53223 22.9543 12.0649 24.2992 17.138 24.4785Z" fill="#A6CE39"/>
<path d="M17.8891 0.0908203C15.5477 0.150595 13.3264 0.658677 11.2852 1.49552C12.8461 1.79439 15.2175 2.39213 17.8891 3.61751V0.0908203Z" fill="#A6CE39"/>
<path d="M10.6855 9.11701C12.3965 7.41344 14.1676 6.12829 15.8186 5.14202C16.2688 4.87303 16.7191 4.63393 17.1393 4.39484C13.8374 2.93036 11.0157 2.45217 9.875 2.30273C9.90502 3.3189 9.99507 5.85931 10.6855 9.11701Z" fill="#A6CE39"/>
<path d="M10.9844 10.3125C11.2846 11.5677 11.7048 12.8828 12.2151 14.2277C13.3258 17.1566 15.0968 20.5937 17.9185 23.7916V5.17188C17.3782 5.44086 16.8379 5.73973 16.2976 6.0386C14.5865 7.08465 12.7554 8.45947 10.9844 10.3125Z" fill="#A6CE39"/>
<path d="M3.12268 22.327C3.12268 22.2971 3.12268 22.327 3.12268 22.327C1.86193 21.789 0.871333 21.3108 0.210938 20.9521C0.511117 23.0741 1.17151 25.0766 2.13209 26.8698C2.37223 25.2559 2.70243 23.7317 3.12268 22.327Z" fill="#A6CE39"/>
<path d="M18.9141 23.7619C21.7057 20.564 23.4768 17.1568 24.5875 14.2279C25.0978 12.9128 25.458 11.6277 25.7882 10.4322C24.0171 8.54931 22.156 7.14461 20.445 6.12845C19.9347 5.82958 19.4244 5.5307 18.9441 5.26172V23.7619H18.9141Z" fill="#A6CE39"/>
<path d="M18.9141 33.2061C20.5951 32.2497 22.126 31.1439 23.5068 29.9185C21.7658 28.8127 20.2349 27.5873 18.9141 26.332V33.2061Z" fill="#A6CE39"/>
<path d="M18.9141 3.55773C21.5857 2.36224 23.9271 1.79439 25.488 1.49552C23.4468 0.658677 21.2555 0.150595 18.9141 0.0908203V3.55773Z" fill="#A6CE39"/>
<path d="M19.5391 25.5252C20.8899 26.8402 22.4808 28.0955 24.2819 29.2013C25.9029 27.6472 27.3437 25.9436 28.5745 24.1504C25.9329 24.8378 22.8711 25.4056 19.5391 25.5252Z" fill="#A6CE39"/>
<path d="M10.4141 31.5623C12.035 33.1164 13.686 34.2521 15.0668 35.089C16.0574 34.7004 16.988 34.282 17.9186 33.8038V26.332C15.8473 28.2448 13.3858 30.038 10.4141 31.5623Z" fill="#A6CE39"/>
<path d="M20.9226 5.20179C22.5735 6.18807 24.3446 7.5031 26.0556 9.23656C26.7761 5.91908 26.8661 3.3189 26.8961 2.30273C25.7555 2.45217 22.8737 2.93036 19.5117 4.39484C19.962 4.66382 20.4423 4.9328 20.9226 5.20179Z" fill="#A6CE39"/>
<path d="M27.9164 2.7207C27.8864 4.06563 27.7062 6.78536 26.9258 10.1327C28.8169 12.1949 30.618 14.7951 32.0288 18.0229C32.9894 15.9308 33.7699 13.7491 34.4003 11.5972C34.4003 10.85 34.4003 10.1028 34.3702 9.32577C32.8093 6.63592 30.588 4.33461 27.9164 2.7207Z" fill="#A6CE39"/>
<path d="M25.5764 14.5559C24.4357 17.6343 22.5746 21.1909 19.6328 24.5084C23.295 24.3888 26.657 23.6715 29.4487 22.8646C30.1691 21.699 30.8295 20.5035 31.4299 19.2781C30.1091 16.0204 28.4281 13.4202 26.597 11.3281C26.3268 12.3443 25.9666 13.4501 25.5764 14.5559Z" fill="#A6CE39"/>
</svg>
