<svg width="160" height="160" viewBox="0 0 160 160" fill="none" xmlns="http://www.w3.org/2000/svg">
<rect width="160" height="160" rx="80" fill="white" fill-opacity="0.1"/>
<g clip-path="url(#clip0_459_9933)">
<path d="M80 111.688V67.8125" stroke="#A6CE39" stroke-width="5" stroke-linecap="round" stroke-linejoin="round"/>
<path d="M80 87.3125L65.375 80" stroke="#A6CE39" stroke-width="5" stroke-linecap="round" stroke-linejoin="round"/>
<path d="M80 80L94.625 72.6875" stroke="#A6CE39" stroke-width="5" stroke-linecap="round" stroke-linejoin="round"/>
<path d="M81.3652 96.2185C83.6025 97.7141 86.1252 98.7304 88.7745 99.2035C91.4237 99.6765 94.1422 99.5961 96.7589 98.9673C99.3756 98.3384 101.834 97.1747 103.979 95.5494C106.124 93.9242 107.909 91.8725 109.222 89.5236C110.536 87.1746 111.349 84.5793 111.61 81.9008C111.871 79.2223 111.576 76.5188 110.741 73.9603C109.906 71.4017 108.551 69.0437 106.761 67.0344C104.971 65.0252 102.784 63.4082 100.338 62.2854C99.7877 62.0285 99.3531 61.5754 99.1193 61.0149C97.5416 57.2482 94.8859 54.0318 91.4858 51.7697C88.0858 49.5076 84.0931 48.3008 80.0093 48.3008C75.9256 48.3008 71.9329 49.5076 68.5328 51.7697C65.1328 54.0318 62.4771 57.2482 60.8993 61.0149C60.6656 61.5754 60.2309 62.0285 59.6806 62.2854C57.2348 63.4082 55.048 65.0252 53.2576 67.0344C51.4672 69.0437 50.1122 71.4017 49.2777 73.9603C48.4431 76.5188 48.1472 79.2223 48.4086 81.9008C48.6699 84.5793 49.4829 87.1746 50.7962 89.5236C52.1096 91.8725 53.8949 93.9242 56.0399 95.5494C58.1849 97.1747 60.6431 98.3384 63.2597 98.9673C65.8764 99.5961 68.5949 99.6765 71.2442 99.2035C73.8935 98.7304 76.4162 97.7141 78.6535 96.2185C79.0547 95.9499 79.5266 95.8066 80.0093 95.8066C80.4921 95.8066 80.964 95.9499 81.3652 96.2185Z" stroke="#A6CE39" stroke-width="5" stroke-linecap="round" stroke-linejoin="round"/>
</g>
<defs>
<clipPath id="clip0_459_9933">
<rect width="78" height="78" fill="white" transform="translate(41 41)"/>
</clipPath>
</defs>
</svg>
