<svg width="160" height="160" viewBox="0 0 160 160" fill="none" xmlns="http://www.w3.org/2000/svg">
<rect width="160" height="160" rx="80" fill="white" fill-opacity="0.1"/>
<g clip-path="url(#clip0_459_9934)">
<path d="M56.8438 117.781C59.5361 117.781 61.7188 115.599 61.7188 112.906C61.7188 110.214 59.5361 108.031 56.8438 108.031C54.1514 108.031 51.9688 110.214 51.9688 112.906C51.9688 115.599 54.1514 117.781 56.8438 117.781Z" fill="#A6CE39"/>
<path d="M66.5938 108.031C69.2861 108.031 71.4688 105.849 71.4688 103.156C71.4688 100.464 69.2861 98.2812 66.5938 98.2812C63.9014 98.2812 61.7188 100.464 61.7188 103.156C61.7188 105.849 63.9014 108.031 66.5938 108.031Z" fill="#A6CE39"/>
<path d="M47.0938 108.031C49.7861 108.031 51.9688 105.849 51.9688 103.156C51.9688 100.464 49.7861 98.2812 47.0938 98.2812C44.4014 98.2812 42.2188 100.464 42.2188 103.156C42.2188 105.849 44.4014 108.031 47.0938 108.031Z" fill="#A6CE39"/>
<path d="M56.8438 98.2812C59.5361 98.2812 61.7188 96.0986 61.7188 93.4062C61.7188 90.7139 59.5361 88.5312 56.8438 88.5312C54.1514 88.5312 51.9688 90.7139 51.9688 93.4062C51.9688 96.0986 54.1514 98.2812 56.8438 98.2812Z" fill="#A6CE39"/>
<path d="M115.345 53.1875H107.823C107.177 53.1878 106.558 53.4442 106.101 53.9005L97.064 62.9375M97.064 62.9375L90.3335 102.337C90.2595 102.778 90.0654 103.19 89.7726 103.529C89.4799 103.867 89.0996 104.118 88.6736 104.255C88.2475 104.391 87.7921 104.408 87.3572 104.303C86.9223 104.198 86.5247 103.975 86.208 103.659L56.3486 73.7996C56.0326 73.4829 55.8099 73.0853 55.7049 72.6504C55.5998 72.2155 55.6165 71.7601 55.753 71.334C55.8896 70.908 56.1408 70.5278 56.4791 70.235C56.8174 69.9422 57.2297 69.7482 57.671 69.6741L97.064 62.9375Z" stroke="#A6CE39" stroke-width="6" stroke-linecap="round" stroke-linejoin="round"/>
</g>
<defs>
<clipPath id="clip0_459_9934">
<rect width="78" height="78" fill="white" transform="translate(41 41)"/>
</clipPath>
</defs>
</svg>
